<?xml version="1.0"?>
<!DOCTYPE svg PUBLIC "-//W3C//DTD SVG 1.1//EN" "http://www.w3.org/Graphics/SVG/1.1/DTD/svg11.dtd">
<svg width="234.6mm" height="444.6mm" viewBox="0 0 234.6 444.6" xmlns="http://www.w3.org/2000/svg" version="1.1">
<g id="Pad" transform="translate(117.300000,222.300000) scale(1,-1)">
<path id="Pad_f0000"  d="M 85.0 220.0 L 85.0 220.0 L -85.0 220.0 L -85.0 220.0 L 85.0 220.0 Z " stroke="#191919" stroke-width="0.35 px" style="stroke-width:0.35;stroke-miterlimit:4;stroke-dasharray:none;fill:#2b8af0;fill-opacity:1.0;fill-rule: evenodd "/>
<path id="Pad_f0001"  d="M -85.0 220.0 A 10 10 0 0 1 -95 210L -95.0 210.0 A 10 10 0 0 0 -85 220L -85.0 220.0 Z " stroke="#191919" stroke-width="0.35 px" style="stroke-width:0.35;stroke-miterlimit:4;stroke-dasharray:none;fill:#2b8af0;fill-opacity:1.0;fill-rule: evenodd "/>
<path id="Pad_f0002"  d="M -95.0 210.0 L -95.0 210.0 L -95.0 95.0 L -95.0 95.0 L -95.0 210.0 Z " stroke="#191919" stroke-width="0.35 px" style="stroke-width:0.35;stroke-miterlimit:4;stroke-dasharray:none;fill:#2b8af0;fill-opacity:1.0;fill-rule: evenodd "/>
<path id="Pad_f0003"  d="M -95.0 95.0 L -95.0 95.0 A 5 5 0 0 0 -100 90L -100.0 90.0 A 5 5 0 0 1 -95 95Z " stroke="#191919" stroke-width="0.35 px" style="stroke-width:0.35;stroke-miterlimit:4;stroke-dasharray:none;fill:#2b8af0;fill-opacity:1.0;fill-rule: evenodd "/>
<path id="Pad_f0004"  d="M -100.0 90.0 L -100.0 90.0 L -105.0 90.0 L -105.0 90.0 L -100.0 90.0 Z " stroke="#191919" stroke-width="0.35 px" style="stroke-width:0.35;stroke-miterlimit:4;stroke-dasharray:none;fill:#2b8af0;fill-opacity:1.0;fill-rule: evenodd "/>
<path id="Pad_f0005"  d="M -105.0 90.0 A 10 10 0 0 1 -115 80L -115.0 80.0 A 10 10 0 0 0 -105 90L -105.0 90.0 Z " stroke="#191919" stroke-width="0.35 px" style="stroke-width:0.35;stroke-miterlimit:4;stroke-dasharray:none;fill:#2b8af0;fill-opacity:1.0;fill-rule: evenodd "/>
<path id="Pad_f0006"  d="M -115.0 80.0 L -115.0 80.0 L -115.0 -210.0 L -115.0 -210.0 L -115.0 80.0 Z " stroke="#191919" stroke-width="0.35 px" style="stroke-width:0.35;stroke-miterlimit:4;stroke-dasharray:none;fill:#2b8af0;fill-opacity:1.0;fill-rule: evenodd "/>
<path id="Pad_f0007"  d="M -115.0 -210.0 A 10 10 0 0 1 -105 -220L -105.0 -220.0 A 10 10 0 0 0 -115 -210L -115.0 -210.0 Z " stroke="#191919" stroke-width="0.35 px" style="stroke-width:0.35;stroke-miterlimit:4;stroke-dasharray:none;fill:#2b8af0;fill-opacity:1.0;fill-rule: evenodd "/>
<path id="Pad_f0008"  d="M -105.0 -220.0 L -105.0 -220.0 L 105.0 -220.0 L 105.0 -220.0 L -105.0 -220.0 Z " stroke="#191919" stroke-width="0.35 px" style="stroke-width:0.35;stroke-miterlimit:4;stroke-dasharray:none;fill:#2b8af0;fill-opacity:1.0;fill-rule: evenodd "/>
<path id="Pad_f0009"  d="M 105.0 -220.0 A 10 10 0 0 1 115 -210L 115.0 -210.0 A 10 10 0 0 0 105 -220L 105.0 -220.0 Z " stroke="#191919" stroke-width="0.35 px" style="stroke-width:0.35;stroke-miterlimit:4;stroke-dasharray:none;fill:#2b8af0;fill-opacity:1.0;fill-rule: evenodd "/>
<path id="Pad_f0010"  d="M 115.0 -210.0 L 115.0 -210.0 L 115.0 80.0 L 115.0 80.0 L 115.0 -210.0 Z " stroke="#191919" stroke-width="0.35 px" style="stroke-width:0.35;stroke-miterlimit:4;stroke-dasharray:none;fill:#2b8af0;fill-opacity:1.0;fill-rule: evenodd "/>
<path id="Pad_f0011"  d="M 115.0 80.0 A 10 10 0 0 1 105 90L 105.0 90.0 A 10 10 0 0 0 115 80L 115.0 80.0 Z " stroke="#191919" stroke-width="0.35 px" style="stroke-width:0.35;stroke-miterlimit:4;stroke-dasharray:none;fill:#2b8af0;fill-opacity:1.0;fill-rule: evenodd "/>
<path id="Pad_f0012"  d="M 105.0 90.0 L 105.0 90.0 L 100.0 90.0 L 100.0 90.0 L 105.0 90.0 Z " stroke="#191919" stroke-width="0.35 px" style="stroke-width:0.35;stroke-miterlimit:4;stroke-dasharray:none;fill:#2b8af0;fill-opacity:1.0;fill-rule: evenodd "/>
<path id="Pad_f0013"  d="M 100.0 90.0 L 100.0 90.0 A 5 5 0 0 0 95 95L 95.0 95.0 A 5 5 0 0 1 100 90Z " stroke="#191919" stroke-width="0.35 px" style="stroke-width:0.35;stroke-miterlimit:4;stroke-dasharray:none;fill:#2b8af0;fill-opacity:1.0;fill-rule: evenodd "/>
<path id="Pad_f0014"  d="M 95.0 95.0 L 95.0 95.0 L 95.0 210.0 L 95.0 210.0 L 95.0 95.0 Z " stroke="#191919" stroke-width="0.35 px" style="stroke-width:0.35;stroke-miterlimit:4;stroke-dasharray:none;fill:#2b8af0;fill-opacity:1.0;fill-rule: evenodd "/>
<path id="Pad_f0015"  d="M 95.0 210.0 A 10 10 0 0 1 85 220L 85.0 220.0 A 10 10 0 0 0 95 210L 95.0 210.0 Z " stroke="#191919" stroke-width="0.35 px" style="stroke-width:0.35;stroke-miterlimit:4;stroke-dasharray:none;fill:#2b8af0;fill-opacity:1.0;fill-rule: evenodd "/>
<circle cx="0.0" cy="-80.0" r="15.0" stroke="#191919" stroke-width="0.35 px" style="stroke-width:0.35;stroke-miterlimit:4;stroke-dasharray:none;fill:#2b8af0"/>
<circle cx="0.0" cy="0.0" r="15.0" stroke="#191919" stroke-width="0.35 px" style="stroke-width:0.35;stroke-miterlimit:4;stroke-dasharray:none;fill:#2b8af0"/>
<path id="Pad_f0018"  d="M 65.0 211.5 L 65.0 211.5 A 1.5 1.5 0 0 0 65 208.5L 65.0 208.5 A 1.5 1.5 0 0 1 65 211.5Z " stroke="#191919" stroke-width="0.35 px" style="stroke-width:0.35;stroke-miterlimit:4;stroke-dasharray:none;fill:#2b8af0;fill-opacity:1.0;fill-rule: evenodd "/>
<path id="Pad_f0019"  d="M 65.0 208.5 L 65.0 208.5 L 35.0 208.5 L 35.0 208.5 L 65.0 208.5 Z " stroke="#191919" stroke-width="0.35 px" style="stroke-width:0.35;stroke-miterlimit:4;stroke-dasharray:none;fill:#2b8af0;fill-opacity:1.0;fill-rule: evenodd "/>
<path id="Pad_f0020"  d="M 35.0 208.5 L 35.0 208.5 A 1.5 1.5 0 0 0 35 211.5L 35.0 211.5 A 1.5 1.5 0 0 1 35 208.5Z " stroke="#191919" stroke-width="0.35 px" style="stroke-width:0.35;stroke-miterlimit:4;stroke-dasharray:none;fill:#2b8af0;fill-opacity:1.0;fill-rule: evenodd "/>
<path id="Pad_f0021"  d="M 35.0 211.5 L 65.0 211.5 L 65.0 211.5 L 35.0 211.5 L 35.0 211.5 Z " stroke="#191919" stroke-width="0.35 px" style="stroke-width:0.35;stroke-miterlimit:4;stroke-dasharray:none;fill:#2b8af0;fill-opacity:1.0;fill-rule: evenodd "/>
<path id="Pad_f0022"  d="M 15.0 211.5 L 15.0 211.5 A 1.5 1.5 0 0 0 15 208.5L 15.0 208.5 A 1.5 1.5 0 0 1 15 211.5Z " stroke="#191919" stroke-width="0.35 px" style="stroke-width:0.35;stroke-miterlimit:4;stroke-dasharray:none;fill:#2b8af0;fill-opacity:1.0;fill-rule: evenodd "/>
<path id="Pad_f0023"  d="M 15.0 208.5 L 15.0 208.5 L -15.0 208.5 L -15.0 208.5 L 15.0 208.5 Z " stroke="#191919" stroke-width="0.35 px" style="stroke-width:0.35;stroke-miterlimit:4;stroke-dasharray:none;fill:#2b8af0;fill-opacity:1.0;fill-rule: evenodd "/>
<path id="Pad_f0024"  d="M -15.0 208.5 L -15.0 208.5 A 1.5 1.5 0 0 0 -15 211.5L -15.0 211.5 A 1.5 1.5 0 0 1 -15 208.5Z " stroke="#191919" stroke-width="0.35 px" style="stroke-width:0.35;stroke-miterlimit:4;stroke-dasharray:none;fill:#2b8af0;fill-opacity:1.0;fill-rule: evenodd "/>
<path id="Pad_f0025"  d="M -15.0 211.5 L 15.0 211.5 L 15.0 211.5 L -15.0 211.5 L -15.0 211.5 Z " stroke="#191919" stroke-width="0.35 px" style="stroke-width:0.35;stroke-miterlimit:4;stroke-dasharray:none;fill:#2b8af0;fill-opacity:1.0;fill-rule: evenodd "/>
<path id="Pad_f0026"  d="M -35.0 211.5 L -35.0 211.5 A 1.5 1.5 0 1 0 -35 208.5L -35.0 208.5 A 1.5 1.5 0 1 1 -35 211.5Z " stroke="#191919" stroke-width="0.35 px" style="stroke-width:0.35;stroke-miterlimit:4;stroke-dasharray:none;fill:#2b8af0;fill-opacity:1.0;fill-rule: evenodd "/>
<path id="Pad_f0027"  d="M -35.0 208.5 L -35.0 208.5 L -65.0 208.5 L -65.0 208.5 L -35.0 208.5 Z " stroke="#191919" stroke-width="0.35 px" style="stroke-width:0.35;stroke-miterlimit:4;stroke-dasharray:none;fill:#2b8af0;fill-opacity:1.0;fill-rule: evenodd "/>
<path id="Pad_f0028"  d="M -65.0 208.5 L -65.0 208.5 A 1.5 1.5 0 1 0 -65 211.5L -65.0 211.5 A 1.5 1.5 0 1 1 -65 208.5Z " stroke="#191919" stroke-width="0.35 px" style="stroke-width:0.35;stroke-miterlimit:4;stroke-dasharray:none;fill:#2b8af0;fill-opacity:1.0;fill-rule: evenodd "/>
<path id="Pad_f0029"  d="M -65.0 211.5 L -35.0 211.5 L -35.0 211.5 L -65.0 211.5 L -65.0 211.5 Z " stroke="#191919" stroke-width="0.35 px" style="stroke-width:0.35;stroke-miterlimit:4;stroke-dasharray:none;fill:#2b8af0;fill-opacity:1.0;fill-rule: evenodd "/>
<path id="Pad_f0030"  d="M -80.5 25.0 L -80.5 25.0 A 1.5 1.5 0 1 0 -77.5 25L -77.5 25.0 A 1.5 1.5 0 1 1 -80.5 25Z " stroke="#191919" stroke-width="0.35 px" style="stroke-width:0.35;stroke-miterlimit:4;stroke-dasharray:none;fill:#2b8af0;fill-opacity:1.0;fill-rule: evenodd "/>
<path id="Pad_f0031"  d="M -77.5 25.0 L -77.5 25.0 L -77.5 -5.0 L -77.5 -5.0 L -77.5 25.0 Z " stroke="#191919" stroke-width="0.35 px" style="stroke-width:0.35;stroke-miterlimit:4;stroke-dasharray:none;fill:#2b8af0;fill-opacity:1.0;fill-rule: evenodd "/>
<path id="Pad_f0032"  d="M -77.5 -5.0 L -77.5 -5.0 A 1.5 1.5 0 0 0 -80.5 -5L -80.5 -5.0 A 1.5 1.5 0 0 1 -77.5 -5Z " stroke="#191919" stroke-width="0.35 px" style="stroke-width:0.35;stroke-miterlimit:4;stroke-dasharray:none;fill:#2b8af0;fill-opacity:1.0;fill-rule: evenodd "/>
<path id="Pad_f0033"  d="M -80.5 -5.0 L -80.5 25.0 L -80.5 25.0 L -80.5 -5.0 L -80.5 -5.0 Z " stroke="#191919" stroke-width="0.35 px" style="stroke-width:0.35;stroke-miterlimit:4;stroke-dasharray:none;fill:#2b8af0;fill-opacity:1.0;fill-rule: evenodd "/>
<path id="Pad_f0034"  d="M -80.5 -25.0 L -80.5 -25.0 A 1.5 1.5 0 1 0 -77.5 -25L -77.5 -25.0 A 1.5 1.5 0 1 1 -80.5 -25Z " stroke="#191919" stroke-width="0.35 px" style="stroke-width:0.35;stroke-miterlimit:4;stroke-dasharray:none;fill:#2b8af0;fill-opacity:1.0;fill-rule: evenodd "/>
<path id="Pad_f0035"  d="M -77.5 -25.0 L -77.5 -25.0 L -77.5 -55.0 L -77.5 -55.0 L -77.5 -25.0 Z " stroke="#191919" stroke-width="0.35 px" style="stroke-width:0.35;stroke-miterlimit:4;stroke-dasharray:none;fill:#2b8af0;fill-opacity:1.0;fill-rule: evenodd "/>
<path id="Pad_f0036"  d="M -77.5 -55.0 L -77.5 -55.0 A 1.5 1.5 0 1 0 -80.5 -55L -80.5 -55.0 A 1.5 1.5 0 1 1 -77.5 -55Z " stroke="#191919" stroke-width="0.35 px" style="stroke-width:0.35;stroke-miterlimit:4;stroke-dasharray:none;fill:#2b8af0;fill-opacity:1.0;fill-rule: evenodd "/>
<path id="Pad_f0037"  d="M -80.5 -55.0 L -80.5 -25.0 L -80.5 -25.0 L -80.5 -55.0 L -80.5 -55.0 Z " stroke="#191919" stroke-width="0.35 px" style="stroke-width:0.35;stroke-miterlimit:4;stroke-dasharray:none;fill:#2b8af0;fill-opacity:1.0;fill-rule: evenodd "/>
<path id="Pad_f0038"  d="M -80.5 -75.0 L -80.5 -75.0 A 1.5 1.5 0 0 0 -77.5 -75L -77.5 -75.0 A 1.5 1.5 0 0 1 -80.5 -75Z " stroke="#191919" stroke-width="0.35 px" style="stroke-width:0.35;stroke-miterlimit:4;stroke-dasharray:none;fill:#2b8af0;fill-opacity:1.0;fill-rule: evenodd "/>
<path id="Pad_f0039"  d="M -77.5 -75.0 L -77.5 -75.0 L -77.5 -105.0 L -77.5 -105.0 L -77.5 -75.0 Z " stroke="#191919" stroke-width="0.35 px" style="stroke-width:0.35;stroke-miterlimit:4;stroke-dasharray:none;fill:#2b8af0;fill-opacity:1.0;fill-rule: evenodd "/>
<path id="Pad_f0040"  d="M -77.5 -105.0 L -77.5 -105.0 A 1.5 1.5 0 1 0 -80.5 -105L -80.5 -105.0 A 1.5 1.5 0 1 1 -77.5 -105Z " stroke="#191919" stroke-width="0.35 px" style="stroke-width:0.35;stroke-miterlimit:4;stroke-dasharray:none;fill:#2b8af0;fill-opacity:1.0;fill-rule: evenodd "/>
<path id="Pad_f0041"  d="M -80.5 -105.0 L -80.5 -75.0 L -80.5 -75.0 L -80.5 -105.0 L -80.5 -105.0 Z " stroke="#191919" stroke-width="0.35 px" style="stroke-width:0.35;stroke-miterlimit:4;stroke-dasharray:none;fill:#2b8af0;fill-opacity:1.0;fill-rule: evenodd "/>
<path id="Pad_f0042"  d="M -64.5 -75.0 L -64.5 -75.0 A 1.5 1.5 0 0 0 -61.5 -75L -61.5 -75.0 A 1.5 1.5 0 0 1 -64.5 -75Z " stroke="#191919" stroke-width="0.35 px" style="stroke-width:0.35;stroke-miterlimit:4;stroke-dasharray:none;fill:#2b8af0;fill-opacity:1.0;fill-rule: evenodd "/>
<path id="Pad_f0043"  d="M -61.5 -75.0 L -61.5 -75.0 L -61.5 -105.0 L -61.5 -105.0 L -61.5 -75.0 Z " stroke="#191919" stroke-width="0.35 px" style="stroke-width:0.35;stroke-miterlimit:4;stroke-dasharray:none;fill:#2b8af0;fill-opacity:1.0;fill-rule: evenodd "/>
<path id="Pad_f0044"  d="M -61.5 -105.0 L -61.5 -105.0 A 1.5 1.5 0 1 0 -64.5 -105L -64.5 -105.0 A 1.5 1.5 0 1 1 -61.5 -105Z " stroke="#191919" stroke-width="0.35 px" style="stroke-width:0.35;stroke-miterlimit:4;stroke-dasharray:none;fill:#2b8af0;fill-opacity:1.0;fill-rule: evenodd "/>
<path id="Pad_f0045"  d="M -64.5 -105.0 L -64.5 -75.0 L -64.5 -75.0 L -64.5 -105.0 L -64.5 -105.0 Z " stroke="#191919" stroke-width="0.35 px" style="stroke-width:0.35;stroke-miterlimit:4;stroke-dasharray:none;fill:#2b8af0;fill-opacity:1.0;fill-rule: evenodd "/>
<path id="Pad_f0046"  d="M 77.5 25.0 L 77.5 25.0 A 1.5 1.5 0 0 0 80.5 25L 80.5 25.0 A 1.5 1.5 0 0 1 77.5 25Z " stroke="#191919" stroke-width="0.35 px" style="stroke-width:0.35;stroke-miterlimit:4;stroke-dasharray:none;fill:#2b8af0;fill-opacity:1.0;fill-rule: evenodd "/>
<path id="Pad_f0047"  d="M 80.5 25.0 L 80.5 25.0 L 80.5 -5.0 L 80.5 -5.0 L 80.5 25.0 Z " stroke="#191919" stroke-width="0.35 px" style="stroke-width:0.35;stroke-miterlimit:4;stroke-dasharray:none;fill:#2b8af0;fill-opacity:1.0;fill-rule: evenodd "/>
<path id="Pad_f0048"  d="M 80.5 -5.0 L 80.5 -5.0 A 1.5 1.5 0 0 0 77.5 -5L 77.5 -5.0 A 1.5 1.5 0 0 1 80.5 -5Z " stroke="#191919" stroke-width="0.35 px" style="stroke-width:0.35;stroke-miterlimit:4;stroke-dasharray:none;fill:#2b8af0;fill-opacity:1.0;fill-rule: evenodd "/>
<path id="Pad_f0049"  d="M 77.5 -5.0 L 77.5 25.0 L 77.5 25.0 L 77.5 -5.0 L 77.5 -5.0 Z " stroke="#191919" stroke-width="0.35 px" style="stroke-width:0.35;stroke-miterlimit:4;stroke-dasharray:none;fill:#2b8af0;fill-opacity:1.0;fill-rule: evenodd "/>
<path id="Pad_f0050"  d="M 77.5 -25.0 L 77.5 -25.0 A 1.5 1.5 0 1 0 80.5 -25L 80.5 -25.0 A 1.5 1.5 0 1 1 77.5 -25Z " stroke="#191919" stroke-width="0.35 px" style="stroke-width:0.35;stroke-miterlimit:4;stroke-dasharray:none;fill:#2b8af0;fill-opacity:1.0;fill-rule: evenodd "/>
<path id="Pad_f0051"  d="M 80.5 -25.0 L 80.5 -25.0 L 80.5 -55.0 L 80.5 -55.0 L 80.5 -25.0 Z " stroke="#191919" stroke-width="0.35 px" style="stroke-width:0.35;stroke-miterlimit:4;stroke-dasharray:none;fill:#2b8af0;fill-opacity:1.0;fill-rule: evenodd "/>
<path id="Pad_f0052"  d="M 80.5 -55.0 L 80.5 -55.0 A 1.5 1.5 0 0 0 77.5 -55L 77.5 -55.0 A 1.5 1.5 0 0 1 80.5 -55Z " stroke="#191919" stroke-width="0.35 px" style="stroke-width:0.35;stroke-miterlimit:4;stroke-dasharray:none;fill:#2b8af0;fill-opacity:1.0;fill-rule: evenodd "/>
<path id="Pad_f0053"  d="M 77.5 -55.0 L 77.5 -25.0 L 77.5 -25.0 L 77.5 -55.0 L 77.5 -55.0 Z " stroke="#191919" stroke-width="0.35 px" style="stroke-width:0.35;stroke-miterlimit:4;stroke-dasharray:none;fill:#2b8af0;fill-opacity:1.0;fill-rule: evenodd "/>
<path id="Pad_f0054"  d="M 77.5 -75.0 L 77.5 -75.0 A 1.5 1.5 0 1 0 80.5 -75L 80.5 -75.0 A 1.5 1.5 0 1 1 77.5 -75Z " stroke="#191919" stroke-width="0.35 px" style="stroke-width:0.35;stroke-miterlimit:4;stroke-dasharray:none;fill:#2b8af0;fill-opacity:1.0;fill-rule: evenodd "/>
<path id="Pad_f0055"  d="M 80.5 -75.0 L 80.5 -75.0 L 80.5 -105.0 L 80.5 -105.0 L 80.5 -75.0 Z " stroke="#191919" stroke-width="0.35 px" style="stroke-width:0.35;stroke-miterlimit:4;stroke-dasharray:none;fill:#2b8af0;fill-opacity:1.0;fill-rule: evenodd "/>
<path id="Pad_f0056"  d="M 80.5 -105.0 L 80.5 -105.0 A 1.5 1.5 0 0 0 77.5 -105L 77.5 -105.0 A 1.5 1.5 0 0 1 80.5 -105Z " stroke="#191919" stroke-width="0.35 px" style="stroke-width:0.35;stroke-miterlimit:4;stroke-dasharray:none;fill:#2b8af0;fill-opacity:1.0;fill-rule: evenodd "/>
<path id="Pad_f0057"  d="M 77.5 -105.0 L 77.5 -75.0 L 77.5 -75.0 L 77.5 -105.0 L 77.5 -105.0 Z " stroke="#191919" stroke-width="0.35 px" style="stroke-width:0.35;stroke-miterlimit:4;stroke-dasharray:none;fill:#2b8af0;fill-opacity:1.0;fill-rule: evenodd "/>
<path id="Pad_f0058"  d="M 103.5 25.0 L 103.5 25.0 A 1.5 1.5 0 0 0 106.5 25L 106.5 25.0 A 1.5 1.5 0 0 1 103.5 25Z " stroke="#191919" stroke-width="0.35 px" style="stroke-width:0.35;stroke-miterlimit:4;stroke-dasharray:none;fill:#2b8af0;fill-opacity:1.0;fill-rule: evenodd "/>
<path id="Pad_f0059"  d="M 106.5 25.0 L 106.5 25.0 L 106.5 -5.0 L 106.5 -5.0 L 106.5 25.0 Z " stroke="#191919" stroke-width="0.35 px" style="stroke-width:0.35;stroke-miterlimit:4;stroke-dasharray:none;fill:#2b8af0;fill-opacity:1.0;fill-rule: evenodd "/>
<path id="Pad_f0060"  d="M 106.5 -5.0 L 106.5 -5.0 A 1.5 1.5 0 0 0 103.5 -5L 103.5 -5.0 A 1.5 1.5 0 0 1 106.5 -5Z " stroke="#191919" stroke-width="0.35 px" style="stroke-width:0.35;stroke-miterlimit:4;stroke-dasharray:none;fill:#2b8af0;fill-opacity:1.0;fill-rule: evenodd "/>
<path id="Pad_f0061"  d="M 103.5 -5.0 L 103.5 25.0 L 103.5 25.0 L 103.5 -5.0 L 103.5 -5.0 Z " stroke="#191919" stroke-width="0.35 px" style="stroke-width:0.35;stroke-miterlimit:4;stroke-dasharray:none;fill:#2b8af0;fill-opacity:1.0;fill-rule: evenodd "/>
<path id="Pad_f0062"  d="M 103.5 -25.0 L 103.5 -25.0 A 1.5 1.5 0 0 0 106.5 -25L 106.5 -25.0 A 1.5 1.5 0 0 1 103.5 -25Z " stroke="#191919" stroke-width="0.35 px" style="stroke-width:0.35;stroke-miterlimit:4;stroke-dasharray:none;fill:#2b8af0;fill-opacity:1.0;fill-rule: evenodd "/>
<path id="Pad_f0063"  d="M 106.5 -25.0 L 106.5 -25.0 L 106.5 -55.0 L 106.5 -55.0 L 106.5 -25.0 Z " stroke="#191919" stroke-width="0.35 px" style="stroke-width:0.35;stroke-miterlimit:4;stroke-dasharray:none;fill:#2b8af0;fill-opacity:1.0;fill-rule: evenodd "/>
<path id="Pad_f0064"  d="M 106.5 -55.0 L 106.5 -55.0 A 1.5 1.5 0 0 0 103.5 -55L 103.5 -55.0 A 1.5 1.5 0 0 1 106.5 -55Z " stroke="#191919" stroke-width="0.35 px" style="stroke-width:0.35;stroke-miterlimit:4;stroke-dasharray:none;fill:#2b8af0;fill-opacity:1.0;fill-rule: evenodd "/>
<path id="Pad_f0065"  d="M 103.5 -55.0 L 103.5 -25.0 L 103.5 -25.0 L 103.5 -55.0 L 103.5 -55.0 Z " stroke="#191919" stroke-width="0.35 px" style="stroke-width:0.35;stroke-miterlimit:4;stroke-dasharray:none;fill:#2b8af0;fill-opacity:1.0;fill-rule: evenodd "/>
<path id="Pad_f0066"  d="M 103.5 -75.0 L 103.5 -75.0 A 1.5 1.5 0 0 0 106.5 -75L 106.5 -75.0 A 1.5 1.5 0 0 1 103.5 -75Z " stroke="#191919" stroke-width="0.35 px" style="stroke-width:0.35;stroke-miterlimit:4;stroke-dasharray:none;fill:#2b8af0;fill-opacity:1.0;fill-rule: evenodd "/>
<path id="Pad_f0067"  d="M 106.5 -75.0 L 106.5 -75.0 L 106.5 -105.0 L 106.5 -105.0 L 106.5 -75.0 Z " stroke="#191919" stroke-width="0.35 px" style="stroke-width:0.35;stroke-miterlimit:4;stroke-dasharray:none;fill:#2b8af0;fill-opacity:1.0;fill-rule: evenodd "/>
<path id="Pad_f0068"  d="M 106.5 -105.0 L 106.5 -105.0 A 1.5 1.5 0 0 0 103.5 -105L 103.5 -105.0 A 1.5 1.5 0 0 1 106.5 -105Z " stroke="#191919" stroke-width="0.35 px" style="stroke-width:0.35;stroke-miterlimit:4;stroke-dasharray:none;fill:#2b8af0;fill-opacity:1.0;fill-rule: evenodd "/>
<path id="Pad_f0069"  d="M 103.5 -105.0 L 103.5 -75.0 L 103.5 -75.0 L 103.5 -105.0 L 103.5 -105.0 Z " stroke="#191919" stroke-width="0.35 px" style="stroke-width:0.35;stroke-miterlimit:4;stroke-dasharray:none;fill:#2b8af0;fill-opacity:1.0;fill-rule: evenodd "/>
<path id="Pad_f0070"  d="M 103.5 70.0 L 103.5 70.0 A 1.5 1.5 0 0 0 106.5 70L 106.5 70.0 A 1.5 1.5 0 0 1 103.5 70Z " stroke="#191919" stroke-width="0.35 px" style="stroke-width:0.35;stroke-miterlimit:4;stroke-dasharray:none;fill:#2b8af0;fill-opacity:1.0;fill-rule: evenodd "/>
<path id="Pad_f0071"  d="M 106.5 70.0 L 106.5 70.0 L 106.5 40.0 L 106.5 40.0 L 106.5 70.0 Z " stroke="#191919" stroke-width="0.35 px" style="stroke-width:0.35;stroke-miterlimit:4;stroke-dasharray:none;fill:#2b8af0;fill-opacity:1.0;fill-rule: evenodd "/>
<path id="Pad_f0072"  d="M 106.5 40.0 L 106.5 40.0 A 1.5 1.5 0 1 0 103.5 40L 103.5 40.0 A 1.5 1.5 0 1 1 106.5 40Z " stroke="#191919" stroke-width="0.35 px" style="stroke-width:0.35;stroke-miterlimit:4;stroke-dasharray:none;fill:#2b8af0;fill-opacity:1.0;fill-rule: evenodd "/>
<path id="Pad_f0073"  d="M 103.5 40.0 L 103.5 70.0 L 103.5 70.0 L 103.5 40.0 L 103.5 40.0 Z " stroke="#191919" stroke-width="0.35 px" style="stroke-width:0.35;stroke-miterlimit:4;stroke-dasharray:none;fill:#2b8af0;fill-opacity:1.0;fill-rule: evenodd "/>
<path id="Pad_f0074"  d="M 77.5 80.0 L 77.5 80.0 A 1.5 1.5 0 0 0 80.5 80L 80.5 80.0 A 1.5 1.5 0 0 1 77.5 80Z " stroke="#191919" stroke-width="0.35 px" style="stroke-width:0.35;stroke-miterlimit:4;stroke-dasharray:none;fill:#2b8af0;fill-opacity:1.0;fill-rule: evenodd "/>
<path id="Pad_f0075"  d="M 80.5 80.0 L 80.5 80.0 L 80.5 50.0 L 80.5 50.0 L 80.5 80.0 Z " stroke="#191919" stroke-width="0.35 px" style="stroke-width:0.35;stroke-miterlimit:4;stroke-dasharray:none;fill:#2b8af0;fill-opacity:1.0;fill-rule: evenodd "/>
<path id="Pad_f0076"  d="M 80.5 50.0 L 80.5 50.0 A 1.5 1.5 0 0 0 77.5 50L 77.5 50.0 A 1.5 1.5 0 0 1 80.5 50Z " stroke="#191919" stroke-width="0.35 px" style="stroke-width:0.35;stroke-miterlimit:4;stroke-dasharray:none;fill:#2b8af0;fill-opacity:1.0;fill-rule: evenodd "/>
<path id="Pad_f0077"  d="M 77.5 50.0 L 77.5 80.0 L 77.5 80.0 L 77.5 50.0 L 77.5 50.0 Z " stroke="#191919" stroke-width="0.35 px" style="stroke-width:0.35;stroke-miterlimit:4;stroke-dasharray:none;fill:#2b8af0;fill-opacity:1.0;fill-rule: evenodd "/>
<path id="Pad_f0078"  d="M -80.5 80.0 L -80.5 80.0 A 1.5 1.5 0 1 0 -77.5 80L -77.5 80.0 A 1.5 1.5 0 1 1 -80.5 80Z " stroke="#191919" stroke-width="0.35 px" style="stroke-width:0.35;stroke-miterlimit:4;stroke-dasharray:none;fill:#2b8af0;fill-opacity:1.0;fill-rule: evenodd "/>
<path id="Pad_f0079"  d="M -77.5 80.0 L -77.5 80.0 L -77.5 50.0 L -77.5 50.0 L -77.5 80.0 Z " stroke="#191919" stroke-width="0.35 px" style="stroke-width:0.35;stroke-miterlimit:4;stroke-dasharray:none;fill:#2b8af0;fill-opacity:1.0;fill-rule: evenodd "/>
<path id="Pad_f0080"  d="M -77.5 50.0 L -77.5 50.0 A 1.5 1.5 0 1 0 -80.5 50L -80.5 50.0 A 1.5 1.5 0 1 1 -77.5 50Z " stroke="#191919" stroke-width="0.35 px" style="stroke-width:0.35;stroke-miterlimit:4;stroke-dasharray:none;fill:#2b8af0;fill-opacity:1.0;fill-rule: evenodd "/>
<path id="Pad_f0081"  d="M -80.5 50.0 L -80.5 80.0 L -80.5 80.0 L -80.5 50.0 L -80.5 50.0 Z " stroke="#191919" stroke-width="0.35 px" style="stroke-width:0.35;stroke-miterlimit:4;stroke-dasharray:none;fill:#2b8af0;fill-opacity:1.0;fill-rule: evenodd "/>
<path id="Pad_f0082"  d="M 39.0 101.0 L 39.0 85.0 L 39.0 85.0 L 39.0 101.0 L 39.0 101.0 Z " stroke="#191919" stroke-width="0.35 px" style="stroke-width:0.35;stroke-miterlimit:4;stroke-dasharray:none;fill:#2b8af0;fill-opacity:1.0;fill-rule: evenodd "/>
<path id="Pad_f0083"  d="M 39.0 85.0 L 16.0 85.0 L 16.0 85.0 L 39.0 85.0 L 39.0 85.0 Z " stroke="#191919" stroke-width="0.35 px" style="stroke-width:0.35;stroke-miterlimit:4;stroke-dasharray:none;fill:#2b8af0;fill-opacity:1.0;fill-rule: evenodd "/>
<path id="Pad_f0084"  d="M 16.0 85.0 L 16.0 101.0 L 16.0 101.0 L 16.0 85.0 L 16.0 85.0 Z " stroke="#191919" stroke-width="0.35 px" style="stroke-width:0.35;stroke-miterlimit:4;stroke-dasharray:none;fill:#2b8af0;fill-opacity:1.0;fill-rule: evenodd "/>
<path id="Pad_f0085"  d="M 16.0 101.0 L 39.0 101.0 L 39.0 101.0 L 16.0 101.0 L 16.0 101.0 Z " stroke="#191919" stroke-width="0.35 px" style="stroke-width:0.35;stroke-miterlimit:4;stroke-dasharray:none;fill:#2b8af0;fill-opacity:1.0;fill-rule: evenodd "/>
<path id="Pad_f0086"  d="M -39.0 101.0 L -16.0 101.0 L -16.0 101.0 L -39.0 101.0 L -39.0 101.0 Z " stroke="#191919" stroke-width="0.35 px" style="stroke-width:0.35;stroke-miterlimit:4;stroke-dasharray:none;fill:#2b8af0;fill-opacity:1.0;fill-rule: evenodd "/>
<path id="Pad_f0087"  d="M -16.0 101.0 L -16.0 85.0 L -16.0 85.0 L -16.0 101.0 L -16.0 101.0 Z " stroke="#191919" stroke-width="0.35 px" style="stroke-width:0.35;stroke-miterlimit:4;stroke-dasharray:none;fill:#2b8af0;fill-opacity:1.0;fill-rule: evenodd "/>
<path id="Pad_f0088"  d="M -16.0 85.0 L -39.0 85.0 L -39.0 85.0 L -16.0 85.0 L -16.0 85.0 Z " stroke="#191919" stroke-width="0.35 px" style="stroke-width:0.35;stroke-miterlimit:4;stroke-dasharray:none;fill:#2b8af0;fill-opacity:1.0;fill-rule: evenodd "/>
<path id="Pad_f0089"  d="M -39.0 85.0 L -39.0 101.0 L -39.0 101.0 L -39.0 85.0 L -39.0 85.0 Z " stroke="#191919" stroke-width="0.35 px" style="stroke-width:0.35;stroke-miterlimit:4;stroke-dasharray:none;fill:#2b8af0;fill-opacity:1.0;fill-rule: evenodd "/>
<path id="Pad_f0090"  d="M 39.0 -38.0 L 39.0 -54.0 L 39.0 -54.0 L 39.0 -38.0 L 39.0 -38.0 Z " stroke="#191919" stroke-width="0.35 px" style="stroke-width:0.35;stroke-miterlimit:4;stroke-dasharray:none;fill:#2b8af0;fill-opacity:1.0;fill-rule: evenodd "/>
<path id="Pad_f0091"  d="M 39.0 -54.0 L 16.0 -54.0 L 16.0 -54.0 L 39.0 -54.0 L 39.0 -54.0 Z " stroke="#191919" stroke-width="0.35 px" style="stroke-width:0.35;stroke-miterlimit:4;stroke-dasharray:none;fill:#2b8af0;fill-opacity:1.0;fill-rule: evenodd "/>
<path id="Pad_f0092"  d="M 16.0 -54.0 L 16.0 -38.0 L 16.0 -38.0 L 16.0 -54.0 L 16.0 -54.0 Z " stroke="#191919" stroke-width="0.35 px" style="stroke-width:0.35;stroke-miterlimit:4;stroke-dasharray:none;fill:#2b8af0;fill-opacity:1.0;fill-rule: evenodd "/>
<path id="Pad_f0093"  d="M 16.0 -38.0 L 39.0 -38.0 L 39.0 -38.0 L 16.0 -38.0 L 16.0 -38.0 Z " stroke="#191919" stroke-width="0.35 px" style="stroke-width:0.35;stroke-miterlimit:4;stroke-dasharray:none;fill:#2b8af0;fill-opacity:1.0;fill-rule: evenodd "/>
<path id="Pad_f0094"  d="M -39.0 -38.0 L -16.0 -38.0 L -16.0 -38.0 L -39.0 -38.0 L -39.0 -38.0 Z " stroke="#191919" stroke-width="0.35 px" style="stroke-width:0.35;stroke-miterlimit:4;stroke-dasharray:none;fill:#2b8af0;fill-opacity:1.0;fill-rule: evenodd "/>
<path id="Pad_f0095"  d="M -16.0 -38.0 L -16.0 -54.0 L -16.0 -54.0 L -16.0 -38.0 L -16.0 -38.0 Z " stroke="#191919" stroke-width="0.35 px" style="stroke-width:0.35;stroke-miterlimit:4;stroke-dasharray:none;fill:#2b8af0;fill-opacity:1.0;fill-rule: evenodd "/>
<path id="Pad_f0096"  d="M -16.0 -54.0 L -39.0 -54.0 L -39.0 -54.0 L -16.0 -54.0 L -16.0 -54.0 Z " stroke="#191919" stroke-width="0.35 px" style="stroke-width:0.35;stroke-miterlimit:4;stroke-dasharray:none;fill:#2b8af0;fill-opacity:1.0;fill-rule: evenodd "/>
<path id="Pad_f0097"  d="M -39.0 -54.0 L -39.0 -38.0 L -39.0 -38.0 L -39.0 -54.0 L -39.0 -54.0 Z " stroke="#191919" stroke-width="0.35 px" style="stroke-width:0.35;stroke-miterlimit:4;stroke-dasharray:none;fill:#2b8af0;fill-opacity:1.0;fill-rule: evenodd "/>
<path id="Pad_f0098"  d="M 39.0 -178.0 L 39.0 -194.0 L 39.0 -194.0 L 39.0 -178.0 L 39.0 -178.0 Z " stroke="#191919" stroke-width="0.35 px" style="stroke-width:0.35;stroke-miterlimit:4;stroke-dasharray:none;fill:#2b8af0;fill-opacity:1.0;fill-rule: evenodd "/>
<path id="Pad_f0099"  d="M 39.0 -194.0 L 16.0 -194.0 L 16.0 -194.0 L 39.0 -194.0 L 39.0 -194.0 Z " stroke="#191919" stroke-width="0.35 px" style="stroke-width:0.35;stroke-miterlimit:4;stroke-dasharray:none;fill:#2b8af0;fill-opacity:1.0;fill-rule: evenodd "/>
<path id="Pad_f0100"  d="M 16.0 -194.0 L 16.0 -178.0 L 16.0 -178.0 L 16.0 -194.0 L 16.0 -194.0 Z " stroke="#191919" stroke-width="0.35 px" style="stroke-width:0.35;stroke-miterlimit:4;stroke-dasharray:none;fill:#2b8af0;fill-opacity:1.0;fill-rule: evenodd "/>
<path id="Pad_f0101"  d="M 16.0 -178.0 L 39.0 -178.0 L 39.0 -178.0 L 16.0 -178.0 L 16.0 -178.0 Z " stroke="#191919" stroke-width="0.35 px" style="stroke-width:0.35;stroke-miterlimit:4;stroke-dasharray:none;fill:#2b8af0;fill-opacity:1.0;fill-rule: evenodd "/>
<path id="Pad_f0102"  d="M -39.0 -108.0 L -16.0 -108.0 L -16.0 -108.0 L -39.0 -108.0 L -39.0 -108.0 Z " stroke="#191919" stroke-width="0.35 px" style="stroke-width:0.35;stroke-miterlimit:4;stroke-dasharray:none;fill:#2b8af0;fill-opacity:1.0;fill-rule: evenodd "/>
<path id="Pad_f0103"  d="M -16.0 -108.0 L -16.0 -124.0 L -16.0 -124.0 L -16.0 -108.0 L -16.0 -108.0 Z " stroke="#191919" stroke-width="0.35 px" style="stroke-width:0.35;stroke-miterlimit:4;stroke-dasharray:none;fill:#2b8af0;fill-opacity:1.0;fill-rule: evenodd "/>
<path id="Pad_f0104"  d="M -16.0 -124.0 L -39.0 -124.0 L -39.0 -124.0 L -16.0 -124.0 L -16.0 -124.0 Z " stroke="#191919" stroke-width="0.35 px" style="stroke-width:0.35;stroke-miterlimit:4;stroke-dasharray:none;fill:#2b8af0;fill-opacity:1.0;fill-rule: evenodd "/>
<path id="Pad_f0105"  d="M -39.0 -124.0 L -39.0 -108.0 L -39.0 -108.0 L -39.0 -124.0 L -39.0 -124.0 Z " stroke="#191919" stroke-width="0.35 px" style="stroke-width:0.35;stroke-miterlimit:4;stroke-dasharray:none;fill:#2b8af0;fill-opacity:1.0;fill-rule: evenodd "/>
<path id="Pad_f0106"  d="M -39.0 -178.0 L -16.0 -178.0 L -16.0 -178.0 L -39.0 -178.0 L -39.0 -178.0 Z " stroke="#191919" stroke-width="0.35 px" style="stroke-width:0.35;stroke-miterlimit:4;stroke-dasharray:none;fill:#2b8af0;fill-opacity:1.0;fill-rule: evenodd "/>
<path id="Pad_f0107"  d="M -16.0 -178.0 L -16.0 -194.0 L -16.0 -194.0 L -16.0 -178.0 L -16.0 -178.0 Z " stroke="#191919" stroke-width="0.35 px" style="stroke-width:0.35;stroke-miterlimit:4;stroke-dasharray:none;fill:#2b8af0;fill-opacity:1.0;fill-rule: evenodd "/>
<path id="Pad_f0108"  d="M -16.0 -194.0 L -39.0 -194.0 L -39.0 -194.0 L -16.0 -194.0 L -16.0 -194.0 Z " stroke="#191919" stroke-width="0.35 px" style="stroke-width:0.35;stroke-miterlimit:4;stroke-dasharray:none;fill:#2b8af0;fill-opacity:1.0;fill-rule: evenodd "/>
<path id="Pad_f0109"  d="M -39.0 -194.0 L -39.0 -178.0 L -39.0 -178.0 L -39.0 -194.0 L -39.0 -194.0 Z " stroke="#191919" stroke-width="0.35 px" style="stroke-width:0.35;stroke-miterlimit:4;stroke-dasharray:none;fill:#2b8af0;fill-opacity:1.0;fill-rule: evenodd "/>
<path id="Pad_f0110"  d="M 39.0 48.0 L 39.0 32.0 L 39.0 32.0 L 39.0 48.0 L 39.0 48.0 Z " stroke="#191919" stroke-width="0.35 px" style="stroke-width:0.35;stroke-miterlimit:4;stroke-dasharray:none;fill:#2b8af0;fill-opacity:1.0;fill-rule: evenodd "/>
<path id="Pad_f0111"  d="M 39.0 32.0 L 16.0 32.0 L 16.0 32.0 L 39.0 32.0 L 39.0 32.0 Z " stroke="#191919" stroke-width="0.35 px" style="stroke-width:0.35;stroke-miterlimit:4;stroke-dasharray:none;fill:#2b8af0;fill-opacity:1.0;fill-rule: evenodd "/>
<path id="Pad_f0112"  d="M 16.0 32.0 L 16.0 48.0 L 16.0 48.0 L 16.0 32.0 L 16.0 32.0 Z " stroke="#191919" stroke-width="0.35 px" style="stroke-width:0.35;stroke-miterlimit:4;stroke-dasharray:none;fill:#2b8af0;fill-opacity:1.0;fill-rule: evenodd "/>
<path id="Pad_f0113"  d="M 16.0 48.0 L 39.0 48.0 L 39.0 48.0 L 16.0 48.0 L 16.0 48.0 Z " stroke="#191919" stroke-width="0.35 px" style="stroke-width:0.35;stroke-miterlimit:4;stroke-dasharray:none;fill:#2b8af0;fill-opacity:1.0;fill-rule: evenodd "/>
<path id="Pad_f0114"  d="M -39.0 48.0 L -16.0 48.0 L -16.0 48.0 L -39.0 48.0 L -39.0 48.0 Z " stroke="#191919" stroke-width="0.35 px" style="stroke-width:0.35;stroke-miterlimit:4;stroke-dasharray:none;fill:#2b8af0;fill-opacity:1.0;fill-rule: evenodd "/>
<path id="Pad_f0115"  d="M -16.0 48.0 L -16.0 32.0 L -16.0 32.0 L -16.0 48.0 L -16.0 48.0 Z " stroke="#191919" stroke-width="0.35 px" style="stroke-width:0.35;stroke-miterlimit:4;stroke-dasharray:none;fill:#2b8af0;fill-opacity:1.0;fill-rule: evenodd "/>
<path id="Pad_f0116"  d="M -16.0 32.0 L -39.0 32.0 L -39.0 32.0 L -16.0 32.0 L -16.0 32.0 Z " stroke="#191919" stroke-width="0.35 px" style="stroke-width:0.35;stroke-miterlimit:4;stroke-dasharray:none;fill:#2b8af0;fill-opacity:1.0;fill-rule: evenodd "/>
<path id="Pad_f0117"  d="M -39.0 32.0 L -39.0 48.0 L -39.0 48.0 L -39.0 32.0 L -39.0 32.0 Z " stroke="#191919" stroke-width="0.35 px" style="stroke-width:0.35;stroke-miterlimit:4;stroke-dasharray:none;fill:#2b8af0;fill-opacity:1.0;fill-rule: evenodd "/>
<path id="Pad_f0118"  d="M 71.0 -194.0 L 71.0 -178.0 L 71.0 -178.0 L 71.0 -194.0 L 71.0 -194.0 Z " stroke="#191919" stroke-width="0.35 px" style="stroke-width:0.35;stroke-miterlimit:4;stroke-dasharray:none;fill:#2b8af0;fill-opacity:1.0;fill-rule: evenodd "/>
<path id="Pad_f0119"  d="M 71.0 -178.0 L 94.0 -178.0 L 94.0 -178.0 L 71.0 -178.0 L 71.0 -178.0 Z " stroke="#191919" stroke-width="0.35 px" style="stroke-width:0.35;stroke-miterlimit:4;stroke-dasharray:none;fill:#2b8af0;fill-opacity:1.0;fill-rule: evenodd "/>
<path id="Pad_f0120"  d="M 94.0 -178.0 L 94.0 -194.0 L 94.0 -194.0 L 94.0 -178.0 L 94.0 -178.0 Z " stroke="#191919" stroke-width="0.35 px" style="stroke-width:0.35;stroke-miterlimit:4;stroke-dasharray:none;fill:#2b8af0;fill-opacity:1.0;fill-rule: evenodd "/>
<path id="Pad_f0121"  d="M 94.0 -194.0 L 71.0 -194.0 L 71.0 -194.0 L 94.0 -194.0 L 94.0 -194.0 Z " stroke="#191919" stroke-width="0.35 px" style="stroke-width:0.35;stroke-miterlimit:4;stroke-dasharray:none;fill:#2b8af0;fill-opacity:1.0;fill-rule: evenodd "/>
<path id="Pad_f0122"  d="M 39.0 -108.0 L 39.0 -124.0 L 39.0 -124.0 L 39.0 -108.0 L 39.0 -108.0 Z " stroke="#191919" stroke-width="0.35 px" style="stroke-width:0.35;stroke-miterlimit:4;stroke-dasharray:none;fill:#2b8af0;fill-opacity:1.0;fill-rule: evenodd "/>
<path id="Pad_f0123"  d="M 39.0 -124.0 L 16.0 -124.0 L 16.0 -124.0 L 39.0 -124.0 L 39.0 -124.0 Z " stroke="#191919" stroke-width="0.35 px" style="stroke-width:0.35;stroke-miterlimit:4;stroke-dasharray:none;fill:#2b8af0;fill-opacity:1.0;fill-rule: evenodd "/>
<path id="Pad_f0124"  d="M 16.0 -124.0 L 16.0 -108.0 L 16.0 -108.0 L 16.0 -124.0 L 16.0 -124.0 Z " stroke="#191919" stroke-width="0.35 px" style="stroke-width:0.35;stroke-miterlimit:4;stroke-dasharray:none;fill:#2b8af0;fill-opacity:1.0;fill-rule: evenodd "/>
<path id="Pad_f0125"  d="M 16.0 -108.0 L 39.0 -108.0 L 39.0 -108.0 L 16.0 -108.0 L 16.0 -108.0 Z " stroke="#191919" stroke-width="0.35 px" style="stroke-width:0.35;stroke-miterlimit:4;stroke-dasharray:none;fill:#2b8af0;fill-opacity:1.0;fill-rule: evenodd "/>
<path id="Pad_f0126"  d="M -94.0 -178.0 L -71.0 -178.0 L -71.0 -178.0 L -94.0 -178.0 L -94.0 -178.0 Z " stroke="#191919" stroke-width="0.35 px" style="stroke-width:0.35;stroke-miterlimit:4;stroke-dasharray:none;fill:#2b8af0;fill-opacity:1.0;fill-rule: evenodd "/>
<path id="Pad_f0127"  d="M -71.0 -178.0 L -71.0 -194.0 L -71.0 -194.0 L -71.0 -178.0 L -71.0 -178.0 Z " stroke="#191919" stroke-width="0.35 px" style="stroke-width:0.35;stroke-miterlimit:4;stroke-dasharray:none;fill:#2b8af0;fill-opacity:1.0;fill-rule: evenodd "/>
<path id="Pad_f0128"  d="M -71.0 -194.0 L -94.0 -194.0 L -94.0 -194.0 L -71.0 -194.0 L -71.0 -194.0 Z " stroke="#191919" stroke-width="0.35 px" style="stroke-width:0.35;stroke-miterlimit:4;stroke-dasharray:none;fill:#2b8af0;fill-opacity:1.0;fill-rule: evenodd "/>
<path id="Pad_f0129"  d="M -94.0 -194.0 L -94.0 -178.0 L -94.0 -178.0 L -94.0 -194.0 L -94.0 -194.0 Z " stroke="#191919" stroke-width="0.35 px" style="stroke-width:0.35;stroke-miterlimit:4;stroke-dasharray:none;fill:#2b8af0;fill-opacity:1.0;fill-rule: evenodd "/>
<circle cx="-42.0" cy="155.0" r="4.0" stroke="#191919" stroke-width="0.35 px" style="stroke-width:0.35;stroke-miterlimit:4;stroke-dasharray:none;fill:#2b8af0"/>
<circle cx="42.0" cy="-155.0" r="4.0" stroke="#191919" stroke-width="0.35 px" style="stroke-width:0.35;stroke-miterlimit:4;stroke-dasharray:none;fill:#2b8af0"/>
<circle cx="-42.0" cy="-155.0" r="4.0" stroke="#191919" stroke-width="0.35 px" style="stroke-width:0.35;stroke-miterlimit:4;stroke-dasharray:none;fill:#2b8af0"/>
<circle cx="42.0" cy="155.0" r="4.0" stroke="#191919" stroke-width="0.35 px" style="stroke-width:0.35;stroke-miterlimit:4;stroke-dasharray:none;fill:#2b8af0"/>
<circle cx="-105.0" cy="-15.0" r="1.5" stroke="#191919" stroke-width="0.35 px" style="stroke-width:0.35;stroke-miterlimit:4;stroke-dasharray:none;fill:#2b8af0"/>
<circle cx="0.0" cy="-210.0" r="1.5" stroke="#191919" stroke-width="0.35 px" style="stroke-width:0.35;stroke-miterlimit:4;stroke-dasharray:none;fill:#2b8af0"/>
<circle cx="-85.0" cy="210.0" r="1.5" stroke="#191919" stroke-width="0.35 px" style="stroke-width:0.35;stroke-miterlimit:4;stroke-dasharray:none;fill:#2b8af0"/>
<circle cx="85.0" cy="210.0" r="1.5" stroke="#191919" stroke-width="0.35 px" style="stroke-width:0.35;stroke-miterlimit:4;stroke-dasharray:none;fill:#2b8af0"/>
<circle cx="-105.0" cy="-210.0" r="1.5" stroke="#191919" stroke-width="0.35 px" style="stroke-width:0.35;stroke-miterlimit:4;stroke-dasharray:none;fill:#2b8af0"/>
<circle cx="79.0" cy="45.0" r="1.5" stroke="#191919" stroke-width="0.35 px" style="stroke-width:0.35;stroke-miterlimit:4;stroke-dasharray:none;fill:#2b8af0"/>
<circle cx="-79.0" cy="45.0" r="1.5" stroke="#191919" stroke-width="0.35 px" style="stroke-width:0.35;stroke-miterlimit:4;stroke-dasharray:none;fill:#2b8af0"/>
<circle cx="79.0" cy="-113.0" r="1.5" stroke="#191919" stroke-width="0.35 px" style="stroke-width:0.35;stroke-miterlimit:4;stroke-dasharray:none;fill:#2b8af0"/>
<circle cx="-63.0" cy="-113.0" r="1.5" stroke="#191919" stroke-width="0.35 px" style="stroke-width:0.35;stroke-miterlimit:4;stroke-dasharray:none;fill:#2b8af0"/>
<circle cx="105.0" cy="-210.0" r="1.5" stroke="#191919" stroke-width="0.35 px" style="stroke-width:0.35;stroke-miterlimit:4;stroke-dasharray:none;fill:#2b8af0"/>
<circle cx="85.0" cy="100.0" r="1.5" stroke="#191919" stroke-width="0.35 px" style="stroke-width:0.35;stroke-miterlimit:4;stroke-dasharray:none;fill:#2b8af0"/>
<circle cx="-85.0" cy="100.0" r="1.5" stroke="#191919" stroke-width="0.35 px" style="stroke-width:0.35;stroke-miterlimit:4;stroke-dasharray:none;fill:#2b8af0"/>
<circle cx="105.0" cy="80.0" r="1.5" stroke="#191919" stroke-width="0.35 px" style="stroke-width:0.35;stroke-miterlimit:4;stroke-dasharray:none;fill:#2b8af0"/>
<circle cx="-105.0" cy="80.0" r="1.5" stroke="#191919" stroke-width="0.35 px" style="stroke-width:0.35;stroke-miterlimit:4;stroke-dasharray:none;fill:#2b8af0"/>
<circle cx="105.0" cy="-15.0" r="1.5" stroke="#191919" stroke-width="0.35 px" style="stroke-width:0.35;stroke-miterlimit:4;stroke-dasharray:none;fill:#2b8af0"/>
<circle cx="105.0" cy="-120.0" r="1.5" stroke="#191919" stroke-width="0.35 px" style="stroke-width:0.35;stroke-miterlimit:4;stroke-dasharray:none;fill:#2b8af0"/>
<circle cx="-105.0" cy="-120.0" r="1.5" stroke="#191919" stroke-width="0.35 px" style="stroke-width:0.35;stroke-miterlimit:4;stroke-dasharray:none;fill:#2b8af0"/>
<circle cx="50.0" cy="-16.0" r="1.5" stroke="#191919" stroke-width="0.35 px" style="stroke-width:0.35;stroke-miterlimit:4;stroke-dasharray:none;fill:#2b8af0"/>
<circle cx="0.0" cy="-80.0" r="15.0" stroke="#191919" stroke-width="0.35 px" style="stroke-width:0.35;stroke-miterlimit:4;stroke-dasharray:none;fill:#2b8af0"/>
<circle cx="-4.89858719659e-16" cy="-80.0" r="15.0" stroke="#191919" stroke-width="0.35 px" style="stroke-width:0.35;stroke-miterlimit:4;stroke-dasharray:none;fill:#2b8af0"/>
<title>Pad</title>
</g>
</svg>