999
FreeCAD v0.19 18824 (Git)
  0
SECTION
  2
HEADER
  9
$ACADVER
  1
AC1014
  9
$ACADMAINTVER
 70
     9
  9
$DWGCODEPAGE
  3
ANSI_1252
  9
$TEXTSTYLE
  7
STANDARD
  9
$DIMSTYLE
  2
STANDARD
  9
$DIMTXSTY
  7
STANDARD
  9
$CMLSTYLE
  2
STANDARD
  9
$PEXTMAX
 10
50
 20
50
 30
50
  9
$PEXTMIN
 10
0
 20
0
 30
0
  9
$HANDSEED
  5
FFFF
  0
ENDSEC
  0
SECTION
  2
CLASSES
  0
CLASS
  1
ACDBDICTIONARYWDFLT
  2
AcDbDictionaryWithDefault
  3
ObjectDBX Classes
 90
        0
280
     0
281
     0
  0
CLASS
  1
XRECORD
  2
AcDbXrecord
  3
ObjectDBX Classes
 90
        0
280
     0
281
     0
  0
CLASS
  1
LWPOLYLINE
  2
AcDbPolyline
  3
ObjectDBX Classes
 90
        0
280
     0
281
     1
  0
ENDSEC
  0
SECTION
  2
TABLES
  0
TABLE
  2
VPORT
  5
20
330
0
100
AcDbSymbolTable
 70
     1
  0
VPORT
  5
21
330
20
100
AcDbSymbolTableRecord
100
AcDbViewportTableRecord
  2
*ACTIVE
 70
     0
  0
ENDTAB
  0
TABLE
  2
LTYPE
  5
22
330
0
100
AcDbSymbolTable
 70
     1
  0
LTYPE
  5
23
330
21
100
AcDbSymbolTableRecord
100
AcDbLinetypeTableRecord
  2
BYBLOCK
 70
     0
  3

 72
    65
 73
     0
 40
0.0
  0
LTYPE
  5
24
330
21
100
AcDbSymbolTableRecord
100
AcDbLinetypeTableRecord
  2
BYLAYER
 70
     0
  3

 72
    65
 73
     0
 40
0.0
  0
LTYPE
  5
25
330
21
100
AcDbSymbolTableRecord
100
AcDbLinetypeTableRecord
  2
CONTINUOUS
 70
     0
  3
Solid line
 72
    65
 73
     0
 40
0.0
  0
ENDTAB
  0
TABLE
  2
LAYER
  5
AFC
330
0
100
AcDbSymbolTable
 70
3
  0
LAYER
  5
AFD
330
AFC
100
AcDbSymbolTableRecord
100
AcDbLayerTableRecord
  2
0
 70
   0
 62
   7
  6
CONTINUOUS
  0
LAYER
  5
AFE
330
AFC
100
AcDbSymbolTableRecord
100
AcDbLayerTableRecord
  2
none
 70
    0
 62
    7
  6
CONTINUOUS
  0
LAYER
  5
AFF
330
AFC
100
AcDbSymbolTableRecord
100
AcDbLayerTableRecord
  2
Shape2DView003
 70
    0
 62
    7
  6
CONTINUOUS
  0
ENDTAB
  0
TABLE
  2
STYLE
  5
70
330
0
100
AcDbSymbolTable
 70
     2
  0
STYLE
  5
71
330
70
100
AcDbSymbolTableRecord
100
AcDbTextStyleTableRecord
  2
STANDARD
 70
     0
 40
0.0
 41
1.0
 50
0.0
 71
     0
 42
2.5
  3
arial.ttf
  4

  0
STYLE
  5
72
330
70
100
AcDbSymbolTableRecord
100
AcDbTextStyleTableRecord
  2
ANNOTATIVE
 70
     0
 40
0.0
 41
1.0
 50
0.0
 71
     0
 42
2.5
  3
arial.ttf
  4

  0
ENDTAB
  0
TABLE
  2
VIEW
  5
73
330
0
100
AcDbSymbolTable
 70
     0
  0
ENDTAB
  0
TABLE
  2
UCS
  5
74
330
0
100
AcDbSymbolTable
 70
     0
  0
ENDTAB
  0
TABLE
  2
APPID
  5
75
330
0
100
AcDbSymbolTable
 70
     2
  0
APPID
  5
76
330
75
100
AcDbSymbolTableRecord
100
AcDbRegAppTableRecord
  2
ACAD
 70
     0
  0
APPID
  5
77
330
75
100
AcDbSymbolTableRecord
100
AcDbRegAppTableRecord
  2
ACADANNOTATIVE
 70
     0
  0
ENDTAB
  0
TABLE
  2
DIMSTYLE
  5
78
330
0
100
AcDbSymbolTable
 70
     2
  0
DIMSTYLE
105
79
330
78
100
AcDbSymbolTableRecord
100
AcDbDimStyleTableRecord
  2
STANDARD
 70
     0
  3

  4

  5

  6

  7

 40
0.0
 41
2.5
 42
0.625
 43
3.75
 44
1.25
 45
0.0
 46
0.0
 47
0.0
 48
0.0
140
2.5
141
2.5
142
0.0
143
0.03937007874016
144
1.0
145
0.0
146
1.0
147
0.625
 71
     0
 72
     0
 73
     0
 74
     0
 75
     0
 76
     0
 77
     1
 78
     8
170
     0
171
     3
172
     1
173
     0
174
     0
175
     0
176
     0
177
     0
178
     0
270
     2
271
     2
272
     2
273
     2
274
     3
340
71
275
     0
280
     0
281
     0
282
     0
283
     0
284
     8
285
     0
286
     0
287
     3
288
     0
  0
ENDTAB
  0
TABLE
  2
BLOCK_RECORD
  5
A01
330
0
100
AcDbSymbolTable
  70
5
  0
BLOCK_RECORD
  5
A02
330
A01
100
AcDbSymbolTableRecord
100
AcDbBlockTableRecord
  2
*MODEL_SPACE
  0
BLOCK_RECORD
  5
A03
330
A01
100
AcDbSymbolTableRecord
100
AcDbBlockTableRecord
  2
*PAPER_SPACE
  0
ENDTAB
  0
ENDSEC
  0
SECTION
  2
BLOCKS
  0
BLOCK
  5
A04
330
A02
100
AcDbEntity
  8
0
100
AcDbBlockBegin
  2
*MODEL_SPACE
 70
   0
 10
0
 20
0
 30
0
  3
*MODEL_SPACE
  1
 
  0
ENDBLK
  5
A05
330
A02
100
AcDbEntity
  8
0
100
AcDbBlockEnd
  0
BLOCK
  5
A06
330
A03
100
AcDbEntity
 67
1
  8
0
100
AcDbBlockBegin
  2
*PAPER_SPACE
 70
   0
 10
0
 20
0
 30
0
  3
*PAPER_SPACE
  1
 
  0
ENDBLK
  5
A07
330
A03
100
AcDbEntity
 67
    1
  8
0
100
AcDbBlockEnd
  0
ENDSEC
  0
SECTION
  2
ENTITIES
  0
LINE
  5
A08
330
A02
100
AcDbEntity
  8
Shape2DView003
100
AcDbLine
 10
145.249
 20
-134.49
 30
0
 11
145.249
 21
27.9102
 31
0
  0
ELLIPSE
  5
A09
330
A02
100
AcDbEntity
  8
Shape2DView003
100
AcDbEllipse
 10
141.708
 20
30.6752
 30
0
 11
-1.11274
 21
9.9379
 31
0
 40
0.33833
 41
-1.8904
 42
-0.319601
  0
LINE
  5
A0A
330
A02
100
AcDbEntity
  8
Shape2DView003
100
AcDbLine
 10
141.708
 20
40.2281
 30
0
 11
100.979
 21
72.0251
 31
0
  0
ELLIPSE
  5
A0B
330
A02
100
AcDbEntity
  8
Shape2DView003
100
AcDbEllipse
 10
100.979
 20
76.8015
 30
0
 11
-0.556369
 21
4.96895
 31
0
 40
0.33833
 41
-5.03199
 42
-3.46119
  0
LINE
  5
A0C
330
A02
100
AcDbEntity
  8
Shape2DView003
100
AcDbLine
 10
99.208
 20
78.184
 30
0
 11
99.208
 21
82.9605
 31
0
  0
ELLIPSE
  5
A0D
330
A02
100
AcDbEntity
  8
Shape2DView003
100
AcDbEllipse
 10
95.6663
 20
85.7254
 30
0
 11
-1.11274
 21
9.9379
 31
0
 40
0.33833
 41
-1.8904
 42
-0.319601
  0
LINE
  5
A0E
330
A02
100
AcDbEntity
  8
Shape2DView003
100
AcDbLine
 10
95.6663
 20
95.2784
 30
0
 11
92.1247
 21
98.0433
 31
0
  0
ELLIPSE
  5
A0F
330
A02
100
AcDbEntity
  8
Shape2DView003
100
AcDbEllipse
 10
92.1247
 20
88.4904
 30
0
 11
-1.11274
 21
9.9379
 31
0
 40
0.33833
 41
-0
 42
-5.03199
  0
ELLIPSE
  5
A10
330
A02
100
AcDbEntity
  8
Shape2DView003
100
AcDbEllipse
 10
92.1247
 20
88.4904
 30
0
 11
-1.11274
 21
9.9379
 31
0
 40
0.33833
 41
-0.319601
 42
-0
  0
ELLIPSE
  5
A11
330
A02
100
AcDbEntity
  8
Shape2DView003
100
AcDbEllipse
 10
88.3839
 20
88.0715
 30
0
 11
-1.11274
 21
9.9379
 31
0
 40
0.33833
 41
-0
 42
-5.03199
  0
LINE
  5
A12
330
A02
100
AcDbEntity
  8
Shape2DView003
100
AcDbLine
 10
88.583
 20
91.2553
 30
0
 11
88.583
 21
72.1495
 31
0
  0
LINE
  5
A13
330
A02
100
AcDbEntity
  8
Shape2DView003
100
AcDbLine
 10
84.8423
 20
90.8365
 30
0
 11
84.8423
 21
75.0699
 31
0
  0
LINE
  5
A14
330
A02
100
AcDbEntity
  8
Shape2DView003
100
AcDbLine
 10
88.583
 20
72.1495
 30
0
 11
17.7503
 21
127.449
 31
0
  0
LINE
  5
A15
330
A02
100
AcDbEntity
  8
Shape2DView003
100
AcDbLine
 10
17.7503
 20
127.449
 30
0
 11
17.7503
 21
146.554
 31
0
  0
ELLIPSE
  5
A16
330
A02
100
AcDbEntity
  8
Shape2DView003
100
AcDbEllipse
 10
14.2086
 20
149.319
 30
0
 11
-1.11274
 21
9.9379
 31
0
 40
0.33833
 41
-1.8904
 42
-0.319601
  0
LINE
  5
A17
330
A02
100
AcDbEntity
  8
Shape2DView003
100
AcDbLine
 10
14.2086
 20
158.872
 30
0
 11
-7.04121
 21
175.462
 31
0
  0
ELLIPSE
  5
A18
330
A02
100
AcDbEntity
  8
Shape2DView003
100
AcDbEllipse
 10
-7.04121
 20
165.909
 30
0
 11
-1.11274
 21
9.9379
 31
0
 40
0.33833
 41
-0
 42
-5.03199
  0
ELLIPSE
  5
A19
330
A02
100
AcDbEntity
  8
Shape2DView003
100
AcDbEllipse
 10
-7.04121
 20
165.909
 30
0
 11
-1.11274
 21
9.9379
 31
0
 40
0.33833
 41
-0.319601
 42
-0
  0
ELLIPSE
  5
A1A
330
A02
100
AcDbEntity
  8
Shape2DView003
100
AcDbEllipse
 10
-10.7819
 20
165.49
 30
0
 11
-1.11274
 21
9.9379
 31
0
 40
0.33833
 41
-0
 42
-5.03199
  0
LINE
  5
A1B
330
A02
100
AcDbEntity
  8
Shape2DView003
100
AcDbLine
 10
-10.5828
 20
168.674
 30
0
 11
-10.5828
 21
-31.9376
 31
0
  0
LINE
  5
A1C
330
A02
100
AcDbEntity
  8
Shape2DView003
100
AcDbLine
 10
-14.3236
 20
168.255
 30
0
 11
-14.3236
 21
-32.3564
 31
0
  0
ELLIPSE
  5
A1D
330
A02
100
AcDbEntity
  8
Shape2DView003
100
AcDbEllipse
 10
-7.04121
 20
-34.7025
 30
0
 11
-1.11274
 21
9.9379
 31
0
 40
0.33833
 41
-5.03199
 42
-3.46119
  0
ELLIPSE
  5
A1E
330
A02
100
AcDbEntity
  8
Shape2DView003
100
AcDbEllipse
 10
-10.7819
 20
-35.1214
 30
0
 11
-1.11274
 21
9.9379
 31
0
 40
0.33833
 41
-5.03199
 42
-3.46119
  0
LINE
  5
A1F
330
A02
100
AcDbEntity
  8
Shape2DView003
100
AcDbLine
 10
-7.04121
 20
-44.2555
 30
0
 11
95.6663
 21
-124.439
 31
0
  0
LINE
  5
A20
330
A02
100
AcDbEntity
  8
Shape2DView003
100
AcDbLine
 10
-10.7819
 20
-44.6743
 30
0
 11
91.9256
 21
-124.858
 31
0
  0
ELLIPSE
  5
A21
330
A02
100
AcDbEntity
  8
Shape2DView003
100
AcDbEllipse
 10
95.6663
 20
-114.886
 30
0
 11
-1.11274
 21
9.9379
 31
0
 40
0.33833
 41
-3.14159
 42
-1.8904
  0
ELLIPSE
  5
A22
330
A02
100
AcDbEntity
  8
Shape2DView003
100
AcDbEllipse
 10
95.6663
 20
-114.886
 30
0
 11
-1.11274
 21
9.9379
 31
0
 40
0.33833
 41
-3.46119
 42
-3.14159
  0
ELLIPSE
  5
A23
330
A02
100
AcDbEntity
  8
Shape2DView003
100
AcDbEllipse
 10
91.9256
 20
-115.305
 30
0
 11
-1.11274
 21
9.9379
 31
0
 40
0.33833
 41
-3.46119
 42
-3.14159
  0
LINE
  5
A24
330
A02
100
AcDbEntity
  8
Shape2DView003
100
AcDbLine
 10
99.208
 20
-117.651
 30
0
 11
99.208
 21
-112.875
 31
0
  0
ELLIPSE
  5
A25
330
A02
100
AcDbEntity
  8
Shape2DView003
100
AcDbEllipse
 10
100.979
 20
-114.257
 30
0
 11
-0.556369
 21
4.96895
 31
0
 40
0.33833
 41
-0
 42
-5.03199
  0
ELLIPSE
  5
A26
330
A02
100
AcDbEntity
  8
Shape2DView003
100
AcDbEllipse
 10
100.979
 20
-114.257
 30
0
 11
-0.556369
 21
4.96895
 31
0
 40
0.33833
 41
-0.319601
 42
-0
  0
LINE
  5
A27
330
A02
100
AcDbEntity
  8
Shape2DView003
100
AcDbLine
 10
100.979
 20
-109.481
 30
0
 11
141.708
 21
-141.278
 31
0
  0
LINE
  5
A28
330
A02
100
AcDbEntity
  8
Shape2DView003
100
AcDbLine
 10
99.29
 20
-111.502
 30
0
 11
137.967
 21
-141.697
 31
0
  0
ELLIPSE
  5
A29
330
A02
100
AcDbEntity
  8
Shape2DView003
100
AcDbEllipse
 10
141.708
 20
-131.725
 30
0
 11
-1.11274
 21
9.9379
 31
0
 40
0.33833
 41
-3.14159
 42
-1.8904
  0
ELLIPSE
  5
A2A
330
A02
100
AcDbEntity
  8
Shape2DView003
100
AcDbEllipse
 10
141.708
 20
-131.725
 30
0
 11
-1.11274
 21
9.9379
 31
0
 40
0.33833
 41
-3.46119
 42
-3.14159
  0
ELLIPSE
  5
A2B
330
A02
100
AcDbEntity
  8
Shape2DView003
100
AcDbEllipse
 10
137.967
 20
-132.144
 30
0
 11
-1.11274
 21
9.9379
 31
0
 40
0.33833
 41
-3.46119
 42
-3.14159
  0
LINE
  5
A2C
330
A02
100
AcDbEntity
  8
Shape2DView003
100
AcDbLine
 10
37.0309
 20
-8.92613
 30
0
 11
37.0309
 21
71.3185
 31
0
  0
LINE
  5
A2D
330
A02
100
AcDbEntity
  8
Shape2DView003
100
AcDbLine
 10
42.8321
 20
26.6672
 30
0
 11
39.0914
 21
26.2484
 31
0
  0
LINE
  5
A2E
330
A02
100
AcDbEntity
  8
Shape2DView003
100
AcDbLine
 10
42.8321
 20
26.6672
 30
0
 11
37.0309
 21
71.3185
 31
0
  0
LINE
  5
A2F
330
A02
100
AcDbEntity
  8
Shape2DView003
100
AcDbLine
 10
39.0914
 20
26.2484
 30
0
 11
37.0309
 21
42.1076
 31
0
  0
LINE
  5
A30
330
A02
100
AcDbEntity
  8
Shape2DView003
100
AcDbLine
 10
42.8321
 20
26.6672
 30
0
 11
37.0309
 21
-8.92613
 31
0
  0
LINE
  5
A31
330
A02
100
AcDbEntity
  8
Shape2DView003
100
AcDbLine
 10
39.0914
 20
26.2484
 30
0
 11
37.0309
 21
13.6063
 31
0
  0
LINE
  5
A32
330
A02
100
AcDbEntity
  8
Shape2DView003
100
AcDbLine
 10
56.51
 20
-24.1334
 30
0
 11
56.51
 21
56.1113
 31
0
  0
LINE
  5
A33
330
A02
100
AcDbEntity
  8
Shape2DView003
100
AcDbLine
 10
62.3112
 20
11.46
 30
0
 11
58.5704
 21
11.0411
 31
0
  0
LINE
  5
A34
330
A02
100
AcDbEntity
  8
Shape2DView003
100
AcDbLine
 10
62.3112
 20
11.46
 30
0
 11
56.51
 21
56.1113
 31
0
  0
LINE
  5
A35
330
A02
100
AcDbEntity
  8
Shape2DView003
100
AcDbLine
 10
58.5704
 20
11.0411
 30
0
 11
56.51
 21
26.9004
 31
0
  0
LINE
  5
A36
330
A02
100
AcDbEntity
  8
Shape2DView003
100
AcDbLine
 10
62.3112
 20
11.46
 30
0
 11
56.51
 21
-24.1334
 31
0
  0
LINE
  5
A37
330
A02
100
AcDbEntity
  8
Shape2DView003
100
AcDbLine
 10
58.5704
 20
11.0411
 30
0
 11
56.51
 21
-1.60093
 31
0
  0
LINE
  5
A38
330
A02
100
AcDbEntity
  8
Shape2DView003
100
AcDbLine
 10
71.4273
 20
-35.7794
 30
0
 11
65.6261
 21
8.87195
 31
0
  0
LINE
  5
A39
330
A02
100
AcDbEntity
  8
Shape2DView003
100
AcDbLine
 10
71.4273
 20
44.4653
 30
0
 11
65.6261
 21
8.87195
 31
0
  0
LINE
  5
A3A
330
A02
100
AcDbEntity
  8
Shape2DView003
100
AcDbLine
 10
71.4273
 20
-35.7794
 30
0
 11
71.4273
 21
44.4653
 31
0
  0
LINE
  5
A3B
330
A02
100
AcDbEntity
  8
Shape2DView003
100
AcDbLine
 10
67.6866
 20
-6.98729
 30
0
 11
67.6866
 21
21.514
 31
0
  0
LINE
  5
A3C
330
A02
100
AcDbEntity
  8
Shape2DView003
100
AcDbLine
 10
51.9483
 20
-20.5721
 30
0
 11
46.1471
 21
24.0792
 31
0
  0
LINE
  5
A3D
330
A02
100
AcDbEntity
  8
Shape2DView003
100
AcDbLine
 10
51.9483
 20
59.6725
 30
0
 11
46.1471
 21
24.0792
 31
0
  0
LINE
  5
A3E
330
A02
100
AcDbEntity
  8
Shape2DView003
100
AcDbLine
 10
51.9483
 20
-20.5721
 30
0
 11
51.9483
 21
59.6725
 31
0
  0
LINE
  5
A3F
330
A02
100
AcDbEntity
  8
Shape2DView003
100
AcDbLine
 10
48.2076
 20
8.21996
 30
0
 11
48.2076
 21
36.7212
 31
0
  0
LINE
  5
A40
330
A02
100
AcDbEntity
  8
Shape2DView003
100
AcDbLine
 10
51.3958
 20
-39.2467
 30
0
 11
37.5834
 21
-28.4633
 31
0
  0
LINE
  5
A41
330
A02
100
AcDbEntity
  8
Shape2DView003
100
AcDbLine
 10
44.4896
 20
13.9097
 30
0
 11
37.5834
 21
-28.4633
 31
0
  0
LINE
  5
A42
330
A02
100
AcDbEntity
  8
Shape2DView003
100
AcDbLine
 10
51.3958
 20
-39.2467
 30
0
 11
44.4896
 21
13.9097
 31
0
  0
LINE
  5
A43
330
A02
100
AcDbEntity
  8
Shape2DView003
100
AcDbLine
 10
47.1723
 20
-35.9493
 30
0
 11
42.3779
 21
0.95288
 31
0
  0
LINE
  5
A44
330
A02
100
AcDbEntity
  8
Shape2DView003
100
AcDbLine
 10
70.8748
 20
64.0025
 30
0
 11
67.1341
 21
63.5836
 31
0
  0
LINE
  5
A45
330
A02
100
AcDbEntity
  8
Shape2DView003
100
AcDbLine
 10
70.8748
 20
64.0025
 30
0
 11
63.9686
 21
21.6295
 31
0
  0
LINE
  5
A46
330
A02
100
AcDbEntity
  8
Shape2DView003
100
AcDbLine
 10
67.1341
 20
63.5836
 30
0
 11
62.3397
 21
34.1674
 31
0
  0
LINE
  5
A47
330
A02
100
AcDbEntity
  8
Shape2DView003
100
AcDbLine
 10
63.9686
 20
21.6295
 30
0
 11
57.0625
 21
74.7858
 31
0
  0
LINE
  5
A48
330
A02
100
AcDbEntity
  8
Shape2DView003
100
AcDbLine
 10
70.8748
 20
64.0025
 30
0
 11
57.0625
 21
74.7858
 31
0
  0
LINE
  5
A49
330
A02
100
AcDbEntity
  8
Shape2DView003
100
AcDbLine
 10
67.1341
 20
63.5836
 30
0
 11
57.5453
 21
71.0696
 31
0
  0
LINE
  5
A4A
330
A02
100
AcDbEntity
  8
Shape2DView003
100
AcDbLine
 10
70.8748
 20
-54.4539
 30
0
 11
57.0625
 21
-43.6706
 31
0
  0
LINE
  5
A4B
330
A02
100
AcDbEntity
  8
Shape2DView003
100
AcDbLine
 10
63.9686
 20
-1.29757
 30
0
 11
57.0625
 21
-43.6706
 31
0
  0
LINE
  5
A4C
330
A02
100
AcDbEntity
  8
Shape2DView003
100
AcDbLine
 10
70.8748
 20
-54.4539
 30
0
 11
63.9686
 21
-1.29757
 31
0
  0
LINE
  5
A4D
330
A02
100
AcDbEntity
  8
Shape2DView003
100
AcDbLine
 10
66.6513
 20
-51.1566
 30
0
 11
61.8569
 21
-14.2544
 31
0
  0
LINE
  5
A4E
330
A02
100
AcDbEntity
  8
Shape2DView003
100
AcDbLine
 10
51.3958
 20
79.2097
 30
0
 11
47.6551
 21
78.7909
 31
0
  0
LINE
  5
A4F
330
A02
100
AcDbEntity
  8
Shape2DView003
100
AcDbLine
 10
51.3958
 20
79.2097
 30
0
 11
44.4896
 21
36.8367
 31
0
  0
LINE
  5
A50
330
A02
100
AcDbEntity
  8
Shape2DView003
100
AcDbLine
 10
47.6551
 20
78.7909
 30
0
 11
42.8607
 21
49.3747
 31
0
  0
LINE
  5
A51
330
A02
100
AcDbEntity
  8
Shape2DView003
100
AcDbLine
 10
44.4896
 20
36.8367
 30
0
 11
37.5834
 21
89.9931
 31
0
  0
LINE
  5
A52
330
A02
100
AcDbEntity
  8
Shape2DView003
100
AcDbLine
 10
51.3958
 20
79.2097
 30
0
 11
37.5834
 21
89.9931
 31
0
  0
LINE
  5
A53
330
A02
100
AcDbEntity
  8
Shape2DView003
100
AcDbLine
 10
47.6551
 20
78.7909
 30
0
 11
38.0663
 21
86.2769
 31
0
  0
LINE
  5
A54
330
A02
100
AcDbEntity
  8
Shape2DView003
100
AcDbLine
 10
134.624
 20
-61.2349
 30
0
 11
138.166
 21
-63.9998
 31
0
  0
ELLIPSE
  5
A55
330
A02
100
AcDbEntity
  8
Shape2DView003
100
AcDbEllipse
 10
151.278
 20
-57.9961
 30
0
 11
-5.56369
 21
49.6895
 31
0
 40
0.33833
 41
-5.37891
 42
-4.68507
  0
LINE
  5
A56
330
A02
100
AcDbEntity
  8
Shape2DView003
100
AcDbLine
 10
138.166
 20
-31.5199
 30
0
 11
134.425
 21
-31.9387
 31
0
  0
LINE
  5
A57
330
A02
100
AcDbEntity
  8
Shape2DView003
100
AcDbLine
 10
138.166
 20
-31.5199
 30
0
 11
134.624
 21
-28.7549
 31
0
  0
LINE
  5
A58
330
A02
100
AcDbEntity
  8
Shape2DView003
100
AcDbLine
 10
134.425
 20
-31.9387
 30
0
 11
134.228
 21
-31.7843
 31
0
  0
LINE
  5
A59
330
A02
100
AcDbEntity
  8
Shape2DView003
100
AcDbLine
 10
138.166
 20
-63.9998
 30
0
 11
138.166
 21
-31.5199
 31
0
  0
LINE
  5
A5A
330
A02
100
AcDbEntity
  8
Shape2DView003
100
AcDbLine
 10
134.425
 20
-59.5093
 30
0
 11
134.425
 21
-31.9387
 31
0
  0
LINE
  5
A5B
330
A02
100
AcDbEntity
  8
Shape2DView003
100
AcDbLine
 10
97.4371
 20
-53.2193
 30
0
 11
103.104
 21
-57.6432
 31
0
  0
LINE
  5
A5C
330
A02
100
AcDbEntity
  8
Shape2DView003
100
AcDbLine
 10
97.4371
 20
-31.2476
 30
0
 11
97.4371
 21
-53.2193
 31
0
  0
LINE
  5
A5D
330
A02
100
AcDbEntity
  8
Shape2DView003
100
AcDbLine
 10
103.104
 20
-35.6715
 30
0
 11
99.363
 21
-36.0903
 31
0
  0
LINE
  5
A5E
330
A02
100
AcDbEntity
  8
Shape2DView003
100
AcDbLine
 10
103.104
 20
-35.6715
 30
0
 11
97.4371
 21
-31.2476
 31
0
  0
LINE
  5
A5F
330
A02
100
AcDbEntity
  8
Shape2DView003
100
AcDbLine
 10
99.363
 20
-36.0903
 30
0
 11
97.4371
 21
-34.5868
 31
0
  0
LINE
  5
A60
330
A02
100
AcDbEntity
  8
Shape2DView003
100
AcDbLine
 10
103.104
 20
-57.6432
 30
0
 11
103.104
 21
-35.6715
 31
0
  0
LINE
  5
A61
330
A02
100
AcDbEntity
  8
Shape2DView003
100
AcDbLine
 10
99.363
 20
-54.7229
 30
0
 11
99.363
 21
-36.0903
 31
0
  0
LINE
  5
A62
330
A02
100
AcDbEntity
  8
Shape2DView003
100
AcDbLine
 10
-1.37459
 20
23.9229
 30
0
 11
4.29203
 21
19.499
 31
0
  0
LINE
  5
A63
330
A02
100
AcDbEntity
  8
Shape2DView003
100
AcDbLine
 10
-1.37459
 20
45.8947
 30
0
 11
-1.37459
 21
23.9229
 31
0
  0
LINE
  5
A64
330
A02
100
AcDbEntity
  8
Shape2DView003
100
AcDbLine
 10
4.29203
 20
41.4707
 30
0
 11
0.551301
 21
41.0519
 31
0
  0
LINE
  5
A65
330
A02
100
AcDbEntity
  8
Shape2DView003
100
AcDbLine
 10
4.29203
 20
41.4707
 30
0
 11
-1.37459
 21
45.8947
 31
0
  0
LINE
  5
A66
330
A02
100
AcDbEntity
  8
Shape2DView003
100
AcDbLine
 10
0.551301
 20
41.0519
 30
0
 11
-1.37459
 21
42.5554
 31
0
  0
LINE
  5
A67
330
A02
100
AcDbEntity
  8
Shape2DView003
100
AcDbLine
 10
4.29203
 20
19.499
 30
0
 11
4.29203
 21
41.4707
 31
0
  0
LINE
  5
A68
330
A02
100
AcDbEntity
  8
Shape2DView003
100
AcDbLine
 10
0.551301
 20
22.4194
 30
0
 11
0.551301
 21
41.0519
 31
0
  0
LINE
  5
A69
330
A02
100
AcDbEntity
  8
Shape2DView003
100
AcDbLine
 10
4.29203
 20
94.0119
 30
0
 11
0.551301
 21
93.593
 31
0
  0
LINE
  5
A6A
330
A02
100
AcDbEntity
  8
Shape2DView003
100
AcDbLine
 10
4.29203
 20
72.0401
 30
0
 11
4.29203
 21
94.0119
 31
0
  0
LINE
  5
A6B
330
A02
100
AcDbEntity
  8
Shape2DView003
100
AcDbLine
 10
0.551301
 20
74.9605
 30
0
 11
0.551301
 21
93.593
 31
0
  0
LINE
  5
A6C
330
A02
100
AcDbEntity
  8
Shape2DView003
100
AcDbLine
 10
-1.37459
 20
76.4641
 30
0
 11
4.29203
 21
72.0401
 31
0
  0
LINE
  5
A6D
330
A02
100
AcDbEntity
  8
Shape2DView003
100
AcDbLine
 10
-1.37459
 20
98.4358
 30
0
 11
-1.37459
 21
76.4641
 31
0
  0
LINE
  5
A6E
330
A02
100
AcDbEntity
  8
Shape2DView003
100
AcDbLine
 10
4.29203
 20
94.0119
 30
0
 11
-1.37459
 21
98.4358
 31
0
  0
LINE
  5
A6F
330
A02
100
AcDbEntity
  8
Shape2DView003
100
AcDbLine
 10
0.551301
 20
93.593
 30
0
 11
-1.37459
 21
95.0966
 31
0
  0
LINE
  5
A70
330
A02
100
AcDbEntity
  8
Shape2DView003
100
AcDbLine
 10
78.6664
 20
-38.5651
 30
0
 11
84.3331
 21
-42.989
 31
0
  0
LINE
  5
A71
330
A02
100
AcDbEntity
  8
Shape2DView003
100
AcDbLine
 10
78.6664
 20
-16.5933
 30
0
 11
78.6664
 21
-38.5651
 31
0
  0
LINE
  5
A72
330
A02
100
AcDbEntity
  8
Shape2DView003
100
AcDbLine
 10
84.3331
 20
-21.0172
 30
0
 11
80.5923
 21
-21.4361
 31
0
  0
LINE
  5
A73
330
A02
100
AcDbEntity
  8
Shape2DView003
100
AcDbLine
 10
84.3331
 20
-21.0172
 30
0
 11
78.6664
 21
-16.5933
 31
0
  0
LINE
  5
A74
330
A02
100
AcDbEntity
  8
Shape2DView003
100
AcDbLine
 10
80.5923
 20
-21.4361
 30
0
 11
78.6664
 21
-19.9325
 31
0
  0
LINE
  5
A75
330
A02
100
AcDbEntity
  8
Shape2DView003
100
AcDbLine
 10
84.3331
 20
-42.989
 30
0
 11
84.3331
 21
-21.0172
 31
0
  0
LINE
  5
A76
330
A02
100
AcDbEntity
  8
Shape2DView003
100
AcDbLine
 10
80.5923
 20
-40.0686
 30
0
 11
80.5923
 21
-21.4361
 31
0
  0
LINE
  5
A77
330
A02
100
AcDbEntity
  8
Shape2DView003
100
AcDbLine
 10
84.3331
 20
31.5239
 30
0
 11
80.5923
 21
31.1051
 31
0
  0
LINE
  5
A78
330
A02
100
AcDbEntity
  8
Shape2DView003
100
AcDbLine
 10
84.3331
 20
9.55216
 30
0
 11
84.3331
 21
31.5239
 31
0
  0
LINE
  5
A79
330
A02
100
AcDbEntity
  8
Shape2DView003
100
AcDbLine
 10
80.5923
 20
12.4725
 30
0
 11
80.5923
 21
31.1051
 31
0
  0
LINE
  5
A7A
330
A02
100
AcDbEntity
  8
Shape2DView003
100
AcDbLine
 10
78.6664
 20
13.9761
 30
0
 11
84.3331
 21
9.55216
 31
0
  0
LINE
  5
A7B
330
A02
100
AcDbEntity
  8
Shape2DView003
100
AcDbLine
 10
78.6664
 20
35.9478
 30
0
 11
78.6664
 21
13.9761
 31
0
  0
LINE
  5
A7C
330
A02
100
AcDbEntity
  8
Shape2DView003
100
AcDbLine
 10
84.3331
 20
31.5239
 30
0
 11
78.6664
 21
35.9478
 31
0
  0
LINE
  5
A7D
330
A02
100
AcDbEntity
  8
Shape2DView003
100
AcDbLine
 10
80.5923
 20
31.1051
 30
0
 11
78.6664
 21
32.6086
 31
0
  0
LINE
  5
A7E
330
A02
100
AcDbEntity
  8
Shape2DView003
100
AcDbLine
 10
4.29203
 20
-11.0704
 30
0
 11
0.551301
 21
-11.4893
 31
0
  0
LINE
  5
A7F
330
A02
100
AcDbEntity
  8
Shape2DView003
100
AcDbLine
 10
4.29203
 20
-11.0704
 30
0
 11
-1.37459
 21
-6.64648
 31
0
  0
LINE
  5
A80
330
A02
100
AcDbEntity
  8
Shape2DView003
100
AcDbLine
 10
0.551301
 20
-11.4893
 30
0
 11
-1.37459
 21
-9.98571
 31
0
  0
LINE
  5
A81
330
A02
100
AcDbEntity
  8
Shape2DView003
100
AcDbLine
 10
4.29203
 20
-33.0422
 30
0
 11
4.29203
 21
-11.0704
 31
0
  0
LINE
  5
A82
330
A02
100
AcDbEntity
  8
Shape2DView003
100
AcDbLine
 10
0.551301
 20
-30.1218
 30
0
 11
0.551301
 21
-11.4893
 31
0
  0
LINE
  5
A83
330
A02
100
AcDbEntity
  8
Shape2DView003
100
AcDbLine
 10
-1.37459
 20
-28.6182
 30
0
 11
4.29203
 21
-33.0422
 31
0
  0
LINE
  5
A84
330
A02
100
AcDbEntity
  8
Shape2DView003
100
AcDbLine
 10
-1.37459
 20
-6.64648
 30
0
 11
-1.37459
 21
-28.6182
 31
0
  0
LINE
  5
A85
330
A02
100
AcDbEntity
  8
Shape2DView003
100
AcDbLine
 10
103.104
 20
16.8697
 30
0
 11
99.363
 21
16.4508
 31
0
  0
LINE
  5
A86
330
A02
100
AcDbEntity
  8
Shape2DView003
100
AcDbLine
 10
103.104
 20
-5.1021
 30
0
 11
103.104
 21
16.8697
 31
0
  0
LINE
  5
A87
330
A02
100
AcDbEntity
  8
Shape2DView003
100
AcDbLine
 10
99.363
 20
-2.18171
 30
0
 11
99.363
 21
16.4508
 31
0
  0
LINE
  5
A88
330
A02
100
AcDbEntity
  8
Shape2DView003
100
AcDbLine
 10
97.4371
 20
-0.67817
 30
0
 11
103.104
 21
-5.1021
 31
0
  0
LINE
  5
A89
330
A02
100
AcDbEntity
  8
Shape2DView003
100
AcDbLine
 10
97.4371
 20
21.2936
 30
0
 11
97.4371
 21
-0.67817
 31
0
  0
LINE
  5
A8A
330
A02
100
AcDbEntity
  8
Shape2DView003
100
AcDbLine
 10
103.104
 20
16.8697
 30
0
 11
97.4371
 21
21.2936
 31
0
  0
LINE
  5
A8B
330
A02
100
AcDbEntity
  8
Shape2DView003
100
AcDbLine
 10
99.363
 20
16.4508
 30
0
 11
97.4371
 21
17.9543
 31
0
  0
LINE
  5
A8C
330
A02
100
AcDbEntity
  8
Shape2DView003
100
AcDbLine
 10
18.1044
 20
8.71567
 30
0
 11
23.771
 21
4.29174
 31
0
  0
LINE
  5
A8D
330
A02
100
AcDbEntity
  8
Shape2DView003
100
AcDbLine
 10
18.1044
 20
30.6874
 30
0
 11
18.1044
 21
8.71567
 31
0
  0
LINE
  5
A8E
330
A02
100
AcDbEntity
  8
Shape2DView003
100
AcDbLine
 10
23.771
 20
26.2635
 30
0
 11
20.0303
 21
25.8446
 31
0
  0
LINE
  5
A8F
330
A02
100
AcDbEntity
  8
Shape2DView003
100
AcDbLine
 10
23.771
 20
26.2635
 30
0
 11
18.1044
 21
30.6874
 31
0
  0
LINE
  5
A90
330
A02
100
AcDbEntity
  8
Shape2DView003
100
AcDbLine
 10
20.0303
 20
25.8446
 30
0
 11
18.1044
 21
27.3482
 31
0
  0
LINE
  5
A91
330
A02
100
AcDbEntity
  8
Shape2DView003
100
AcDbLine
 10
23.771
 20
4.29174
 30
0
 11
23.771
 21
26.2635
 31
0
  0
LINE
  5
A92
330
A02
100
AcDbEntity
  8
Shape2DView003
100
AcDbLine
 10
20.0303
 20
7.21213
 30
0
 11
20.0303
 21
25.8446
 31
0
  0
LINE
  5
A93
330
A02
100
AcDbEntity
  8
Shape2DView003
100
AcDbLine
 10
23.771
 20
78.8046
 30
0
 11
20.0303
 21
78.3858
 31
0
  0
LINE
  5
A94
330
A02
100
AcDbEntity
  8
Shape2DView003
100
AcDbLine
 10
23.771
 20
56.8329
 30
0
 11
23.771
 21
78.8046
 31
0
  0
LINE
  5
A95
330
A02
100
AcDbEntity
  8
Shape2DView003
100
AcDbLine
 10
20.0303
 20
59.7533
 30
0
 11
20.0303
 21
78.3858
 31
0
  0
LINE
  5
A96
330
A02
100
AcDbEntity
  8
Shape2DView003
100
AcDbLine
 10
18.1044
 20
61.2568
 30
0
 11
23.771
 21
56.8329
 31
0
  0
LINE
  5
A97
330
A02
100
AcDbEntity
  8
Shape2DView003
100
AcDbLine
 10
18.1044
 20
83.2286
 30
0
 11
18.1044
 21
61.2568
 31
0
  0
LINE
  5
A98
330
A02
100
AcDbEntity
  8
Shape2DView003
100
AcDbLine
 10
23.771
 20
78.8046
 30
0
 11
18.1044
 21
83.2286
 31
0
  0
LINE
  5
A99
330
A02
100
AcDbEntity
  8
Shape2DView003
100
AcDbLine
 10
20.0303
 20
78.3858
 30
0
 11
18.1044
 21
79.8893
 31
0
  0
LINE
  5
A9A
330
A02
100
AcDbEntity
  8
Shape2DView003
100
AcDbLine
 10
4.29203
 20
146.553
 30
0
 11
0.551301
 21
146.134
 31
0
  0
LINE
  5
A9B
330
A02
100
AcDbEntity
  8
Shape2DView003
100
AcDbLine
 10
4.29203
 20
124.581
 30
0
 11
4.29203
 21
146.553
 31
0
  0
LINE
  5
A9C
330
A02
100
AcDbEntity
  8
Shape2DView003
100
AcDbLine
 10
0.551301
 20
127.502
 30
0
 11
0.551301
 21
146.134
 31
0
  0
LINE
  5
A9D
330
A02
100
AcDbEntity
  8
Shape2DView003
100
AcDbLine
 10
-1.37459
 20
129.005
 30
0
 11
4.29203
 21
124.581
 31
0
  0
LINE
  5
A9E
330
A02
100
AcDbEntity
  8
Shape2DView003
100
AcDbLine
 10
-1.37459
 20
150.977
 30
0
 11
-1.37459
 21
129.005
 31
0
  0
LINE
  5
A9F
330
A02
100
AcDbEntity
  8
Shape2DView003
100
AcDbLine
 10
4.29203
 20
146.553
 30
0
 11
-1.37459
 21
150.977
 31
0
  0
LINE
  5
AA0
330
A02
100
AcDbEntity
  8
Shape2DView003
100
AcDbLine
 10
0.551301
 20
146.134
 30
0
 11
-1.37459
 21
147.638
 31
0
  0
ELLIPSE
  5
AA1
330
A02
100
AcDbEntity
  8
Shape2DView003
100
AcDbEllipse
 10
122.229
 20
4.80478
 30
0
 11
-0.445095
 21
3.97516
 31
0
 40
0.33833
 41
-3.14159
 42
-0.319601
  0
ELLIPSE
  5
AA2
330
A02
100
AcDbEntity
  8
Shape2DView003
100
AcDbEllipse
 10
122.229
 20
4.80478
 30
0
 11
-0.445095
 21
3.97516
 31
0
 40
0.33833
 41
-0
 42
-3.14159
  0
ELLIPSE
  5
AA3
330
A02
100
AcDbEntity
  8
Shape2DView003
100
AcDbEllipse
 10
122.229
 20
4.80478
 30
0
 11
-0.445095
 21
3.97516
 31
0
 40
0.33833
 41
-0.319601
 42
-0
  0
ELLIPSE
  5
AA4
330
A02
100
AcDbEntity
  8
Shape2DView003
100
AcDbEllipse
 10
12.4378
 20
10.2737
 30
0
 11
-0.445095
 21
3.97516
 31
0
 40
0.33833
 41
-3.14159
 42
-0.319601
  0
ELLIPSE
  5
AA5
330
A02
100
AcDbEntity
  8
Shape2DView003
100
AcDbEllipse
 10
12.4378
 20
10.2737
 30
0
 11
-0.445095
 21
3.97516
 31
0
 40
0.33833
 41
-0
 42
-3.14159
  0
ELLIPSE
  5
AA6
330
A02
100
AcDbEntity
  8
Shape2DView003
100
AcDbEllipse
 10
12.4378
 20
10.2737
 30
0
 11
-0.445095
 21
3.97516
 31
0
 40
0.33833
 41
-0.319601
 42
-0
  0
ELLIPSE
  5
AA7
330
A02
100
AcDbEntity
  8
Shape2DView003
100
AcDbEllipse
 10
12.4378
 20
90.5184
 30
0
 11
-0.445095
 21
3.97516
 31
0
 40
0.33833
 41
-3.14159
 42
-0.319601
  0
ELLIPSE
  5
AA8
330
A02
100
AcDbEntity
  8
Shape2DView003
100
AcDbEllipse
 10
12.4378
 20
90.5184
 30
0
 11
-0.445095
 21
3.97516
 31
0
 40
0.33833
 41
-0
 42
-3.14159
  0
ELLIPSE
  5
AA9
330
A02
100
AcDbEntity
  8
Shape2DView003
100
AcDbEllipse
 10
12.4378
 20
90.5184
 30
0
 11
-0.445095
 21
3.97516
 31
0
 40
0.33833
 41
-0.319601
 42
-0
  0
ELLIPSE
  5
AAA
330
A02
100
AcDbEntity
  8
Shape2DView003
100
AcDbEllipse
 10
122.229
 20
-75.4399
 30
0
 11
-0.445095
 21
3.97516
 31
0
 40
0.33833
 41
-3.14159
 42
-0.319601
  0
ELLIPSE
  5
AAB
330
A02
100
AcDbEntity
  8
Shape2DView003
100
AcDbEllipse
 10
122.229
 20
-75.4399
 30
0
 11
-0.445095
 21
3.97516
 31
0
 40
0.33833
 41
-0
 42
-3.14159
  0
ELLIPSE
  5
AAC
330
A02
100
AcDbEntity
  8
Shape2DView003
100
AcDbEllipse
 10
122.229
 20
-75.4399
 30
0
 11
-0.445095
 21
3.97516
 31
0
 40
0.33833
 41
-0.319601
 42
-0
  0
ELLIPSE
  5
AAD
330
A02
100
AcDbEntity
  8
Shape2DView003
100
AcDbEllipse
 10
-7.04121
 20
65.6033
 30
0
 11
-0.166911
 21
1.49068
 31
0
 40
0.33833
 41
-3.14159
 42
-0.319601
  0
ELLIPSE
  5
AAE
330
A02
100
AcDbEntity
  8
Shape2DView003
100
AcDbEllipse
 10
-7.04121
 20
65.6033
 30
0
 11
-0.166911
 21
1.49068
 31
0
 40
0.33833
 41
-0
 42
-3.14159
  0
ELLIPSE
  5
AAF
330
A02
100
AcDbEntity
  8
Shape2DView003
100
AcDbEllipse
 10
-7.04121
 20
65.6033
 30
0
 11
-0.166911
 21
1.49068
 31
0
 40
0.33833
 41
-0.319601
 42
-0
  0
ELLIPSE
  5
AB0
330
A02
100
AcDbEntity
  8
Shape2DView003
100
AcDbEllipse
 10
141.708
 20
30.6752
 30
0
 11
-0.166911
 21
1.49068
 31
0
 40
0.33833
 41
-3.14159
 42
-0.319601
  0
ELLIPSE
  5
AB1
330
A02
100
AcDbEntity
  8
Shape2DView003
100
AcDbEllipse
 10
141.708
 20
30.6752
 30
0
 11
-0.166911
 21
1.49068
 31
0
 40
0.33833
 41
-0
 42
-3.14159
  0
ELLIPSE
  5
AB2
330
A02
100
AcDbEntity
  8
Shape2DView003
100
AcDbEllipse
 10
141.708
 20
30.6752
 30
0
 11
-0.166911
 21
1.49068
 31
0
 40
0.33833
 41
-0.319601
 42
-0
  0
ELLIPSE
  5
AB3
330
A02
100
AcDbEntity
  8
Shape2DView003
100
AcDbEllipse
 10
141.708
 20
-131.725
 30
0
 11
-0.166911
 21
1.49068
 31
0
 40
0.33833
 41
-3.14159
 42
-0.319601
  0
ELLIPSE
  5
AB4
330
A02
100
AcDbEntity
  8
Shape2DView003
100
AcDbEllipse
 10
141.708
 20
-131.725
 30
0
 11
-0.166911
 21
1.49068
 31
0
 40
0.33833
 41
-0
 42
-3.14159
  0
ELLIPSE
  5
AB5
330
A02
100
AcDbEntity
  8
Shape2DView003
100
AcDbEllipse
 10
141.708
 20
-131.725
 30
0
 11
-0.166911
 21
1.49068
 31
0
 40
0.33833
 41
-0.319601
 42
-0
  0
ELLIPSE
  5
AB6
330
A02
100
AcDbEntity
  8
Shape2DView003
100
AcDbEllipse
 10
-7.04121
 20
165.909
 30
0
 11
-0.166911
 21
1.49068
 31
0
 40
0.33833
 41
-3.14159
 42
-0.319601
  0
ELLIPSE
  5
AB7
330
A02
100
AcDbEntity
  8
Shape2DView003
100
AcDbEllipse
 10
-7.04121
 20
165.909
 30
0
 11
-0.166911
 21
1.49068
 31
0
 40
0.33833
 41
-0
 42
-3.14159
  0
ELLIPSE
  5
AB8
330
A02
100
AcDbEntity
  8
Shape2DView003
100
AcDbEllipse
 10
-7.04121
 20
165.909
 30
0
 11
-0.166911
 21
1.49068
 31
0
 40
0.33833
 41
-0.319601
 42
-0
  0
ELLIPSE
  5
AB9
330
A02
100
AcDbEntity
  8
Shape2DView003
100
AcDbEllipse
 10
83.2706
 20
-80.3712
 30
0
 11
-0.166911
 21
1.49068
 31
0
 40
0.33833
 41
-3.14159
 42
-0.319601
  0
ELLIPSE
  5
ABA
330
A02
100
AcDbEntity
  8
Shape2DView003
100
AcDbEllipse
 10
83.2706
 20
-80.3712
 30
0
 11
-0.166911
 21
1.49068
 31
0
 40
0.33833
 41
-0
 42
-3.14159
  0
ELLIPSE
  5
ABB
330
A02
100
AcDbEntity
  8
Shape2DView003
100
AcDbEllipse
 10
83.2706
 20
-80.3712
 30
0
 11
-0.166911
 21
1.49068
 31
0
 40
0.33833
 41
-0.319601
 42
-0
  0
ELLIPSE
  5
ABC
330
A02
100
AcDbEntity
  8
Shape2DView003
100
AcDbEllipse
 10
83.2706
 20
70.5651
 30
0
 11
-0.166911
 21
1.49068
 31
0
 40
0.33833
 41
-3.14159
 42
-0.319601
  0
ELLIPSE
  5
ABD
330
A02
100
AcDbEntity
  8
Shape2DView003
100
AcDbEllipse
 10
83.2706
 20
70.5651
 30
0
 11
-0.166911
 21
1.49068
 31
0
 40
0.33833
 41
-0
 42
-3.14159
  0
ELLIPSE
  5
ABE
330
A02
100
AcDbEntity
  8
Shape2DView003
100
AcDbEllipse
 10
83.2706
 20
70.5651
 30
0
 11
-0.166911
 21
1.49068
 31
0
 40
0.33833
 41
-0.319601
 42
-0
  0
ELLIPSE
  5
ABF
330
A02
100
AcDbEntity
  8
Shape2DView003
100
AcDbEllipse
 10
27.3127
 20
-36.685
 30
0
 11
-0.166911
 21
1.49068
 31
0
 40
0.33833
 41
-3.14159
 42
-0.319601
  0
ELLIPSE
  5
AC0
330
A02
100
AcDbEntity
  8
Shape2DView003
100
AcDbEllipse
 10
27.3127
 20
-36.685
 30
0
 11
-0.166911
 21
1.49068
 31
0
 40
0.33833
 41
-0
 42
-3.14159
  0
ELLIPSE
  5
AC1
330
A02
100
AcDbEntity
  8
Shape2DView003
100
AcDbEllipse
 10
27.3127
 20
-36.685
 30
0
 11
-0.166911
 21
1.49068
 31
0
 40
0.33833
 41
-0.319601
 42
-0
  0
ELLIPSE
  5
AC2
330
A02
100
AcDbEntity
  8
Shape2DView003
100
AcDbEllipse
 10
-7.04121
 20
-34.7025
 30
0
 11
-0.166911
 21
1.49068
 31
0
 40
0.33833
 41
-3.14159
 42
-0.319601
  0
ELLIPSE
  5
AC3
330
A02
100
AcDbEntity
  8
Shape2DView003
100
AcDbEllipse
 10
-7.04121
 20
-34.7025
 30
0
 11
-0.166911
 21
1.49068
 31
0
 40
0.33833
 41
-0
 42
-3.14159
  0
ELLIPSE
  5
AC4
330
A02
100
AcDbEntity
  8
Shape2DView003
100
AcDbEllipse
 10
-7.04121
 20
-34.7025
 30
0
 11
-0.166911
 21
1.49068
 31
0
 40
0.33833
 41
-0.319601
 42
-0
  0
ELLIPSE
  5
AC5
330
A02
100
AcDbEntity
  8
Shape2DView003
100
AcDbEllipse
 10
14.2086
 20
149.319
 30
0
 11
-0.166911
 21
1.49068
 31
0
 40
0.33833
 41
-3.14159
 42
-0.319601
  0
ELLIPSE
  5
AC6
330
A02
100
AcDbEntity
  8
Shape2DView003
100
AcDbEllipse
 10
14.2086
 20
149.319
 30
0
 11
-0.166911
 21
1.49068
 31
0
 40
0.33833
 41
-0
 42
-3.14159
  0
ELLIPSE
  5
AC7
330
A02
100
AcDbEntity
  8
Shape2DView003
100
AcDbEllipse
 10
14.2086
 20
149.319
 30
0
 11
-0.166911
 21
1.49068
 31
0
 40
0.33833
 41
-0.319601
 42
-0
  0
ELLIPSE
  5
AC8
330
A02
100
AcDbEntity
  8
Shape2DView003
100
AcDbEllipse
 10
102.75
 20
-101.31
 30
0
 11
-0.166911
 21
1.49068
 31
0
 40
0.33833
 41
-3.14159
 42
-0.319601
  0
ELLIPSE
  5
AC9
330
A02
100
AcDbEntity
  8
Shape2DView003
100
AcDbEllipse
 10
102.75
 20
-101.31
 30
0
 11
-0.166911
 21
1.49068
 31
0
 40
0.33833
 41
-0
 42
-3.14159
  0
ELLIPSE
  5
ACA
330
A02
100
AcDbEntity
  8
Shape2DView003
100
AcDbEllipse
 10
102.75
 20
-101.31
 30
0
 11
-0.166911
 21
1.49068
 31
0
 40
0.33833
 41
-0.319601
 42
-0
  0
ELLIPSE
  5
ACB
330
A02
100
AcDbEntity
  8
Shape2DView003
100
AcDbEllipse
 10
102.75
 20
61.0897
 30
0
 11
-0.166911
 21
1.49068
 31
0
 40
0.33833
 41
-3.14159
 42
-0.319601
  0
ELLIPSE
  5
ACC
330
A02
100
AcDbEntity
  8
Shape2DView003
100
AcDbEllipse
 10
102.75
 20
61.0897
 30
0
 11
-0.166911
 21
1.49068
 31
0
 40
0.33833
 41
-0
 42
-3.14159
  0
ELLIPSE
  5
ACD
330
A02
100
AcDbEntity
  8
Shape2DView003
100
AcDbEllipse
 10
102.75
 20
61.0897
 30
0
 11
-0.166911
 21
1.49068
 31
0
 40
0.33833
 41
-0.319601
 42
-0
  0
ELLIPSE
  5
ACE
330
A02
100
AcDbEntity
  8
Shape2DView003
100
AcDbEllipse
 10
95.6663
 20
-114.886
 30
0
 11
-0.166911
 21
1.49068
 31
0
 40
0.33833
 41
-3.14159
 42
-0.319601
  0
ELLIPSE
  5
ACF
330
A02
100
AcDbEntity
  8
Shape2DView003
100
AcDbEllipse
 10
95.6663
 20
-114.886
 30
0
 11
-0.166911
 21
1.49068
 31
0
 40
0.33833
 41
-0
 42
-3.14159
  0
ELLIPSE
  5
AD0
330
A02
100
AcDbEntity
  8
Shape2DView003
100
AcDbEllipse
 10
95.6663
 20
-114.886
 30
0
 11
-0.166911
 21
1.49068
 31
0
 40
0.33833
 41
-0.319601
 42
-0
  0
ELLIPSE
  5
AD1
330
A02
100
AcDbEntity
  8
Shape2DView003
100
AcDbEllipse
 10
95.6663
 20
85.7254
 30
0
 11
-0.166911
 21
1.49068
 31
0
 40
0.33833
 41
-3.14159
 42
-0.319601
  0
ELLIPSE
  5
AD2
330
A02
100
AcDbEntity
  8
Shape2DView003
100
AcDbEllipse
 10
95.6663
 20
85.7254
 30
0
 11
-0.166911
 21
1.49068
 31
0
 40
0.33833
 41
-0
 42
-3.14159
  0
ELLIPSE
  5
AD3
330
A02
100
AcDbEntity
  8
Shape2DView003
100
AcDbEllipse
 10
95.6663
 20
85.7254
 30
0
 11
-0.166911
 21
1.49068
 31
0
 40
0.33833
 41
-0.319601
 42
-0
  0
ELLIPSE
  5
AD4
330
A02
100
AcDbEntity
  8
Shape2DView003
100
AcDbEllipse
 10
62.0207
 20
-88.6191
 30
0
 11
-0.166911
 21
1.49068
 31
0
 40
0.33833
 41
-3.14159
 42
-0.319601
  0
ELLIPSE
  5
AD5
330
A02
100
AcDbEntity
  8
Shape2DView003
100
AcDbEllipse
 10
62.0207
 20
-88.6191
 30
0
 11
-0.166911
 21
1.49068
 31
0
 40
0.33833
 41
-0
 42
-3.14159
  0
ELLIPSE
  5
AD6
330
A02
100
AcDbEntity
  8
Shape2DView003
100
AcDbEllipse
 10
62.0207
 20
-88.6191
 30
0
 11
-0.166911
 21
1.49068
 31
0
 40
0.33833
 41
-0.319601
 42
-0
  0
ELLIPSE
  5
AD7
330
A02
100
AcDbEntity
  8
Shape2DView003
100
AcDbEllipse
 10
24.8335
 20
-59.5871
 30
0
 11
-0.166911
 21
1.49068
 31
0
 40
0.33833
 41
-3.14159
 42
-0.319601
  0
ELLIPSE
  5
AD8
330
A02
100
AcDbEntity
  8
Shape2DView003
100
AcDbEllipse
 10
24.8335
 20
-59.5871
 30
0
 11
-0.166911
 21
1.49068
 31
0
 40
0.33833
 41
-0
 42
-3.14159
  0
ELLIPSE
  5
AD9
330
A02
100
AcDbEntity
  8
Shape2DView003
100
AcDbEllipse
 10
24.8335
 20
-59.5871
 30
0
 11
-0.166911
 21
1.49068
 31
0
 40
0.33833
 41
-0.319601
 42
-0
  0
ELLIPSE
  5
ADA
330
A02
100
AcDbEntity
  8
Shape2DView003
100
AcDbEllipse
 10
27.3127
 20
98.9667
 30
0
 11
-0.166911
 21
1.49068
 31
0
 40
0.33833
 41
-3.14159
 42
-0.319601
  0
ELLIPSE
  5
ADB
330
A02
100
AcDbEntity
  8
Shape2DView003
100
AcDbEllipse
 10
27.3127
 20
98.9667
 30
0
 11
-0.166911
 21
1.49068
 31
0
 40
0.33833
 41
-0
 42
-3.14159
  0
ELLIPSE
  5
ADC
330
A02
100
AcDbEntity
  8
Shape2DView003
100
AcDbEllipse
 10
27.3127
 20
98.9667
 30
0
 11
-0.166911
 21
1.49068
 31
0
 40
0.33833
 41
-0.319601
 42
-0
  0
LINE
  5
ADD
330
A02
100
AcDbEntity
  8
Shape2DView003
100
AcDbLine
 10
88.583
 20
91.2553
 30
0
 11
84.8423
 21
90.8365
 31
0
  0
LINE
  5
ADE
330
A02
100
AcDbEntity
  8
Shape2DView003
100
AcDbLine
 10
-10.5828
 20
168.674
 30
0
 11
-14.3236
 21
168.255
 31
0
  0
LINE
  5
ADF
330
A02
100
AcDbEntity
  8
Shape2DView003
100
AcDbLine
 10
-10.5828
 20
-31.9376
 30
0
 11
-14.3236
 21
-32.3564
 31
0
  0
LINE
  5
AE0
330
A02
100
AcDbEntity
  8
Shape2DView003
100
AcDbLine
 10
-7.04121
 20
-44.2555
 30
0
 11
-10.7819
 21
-44.6743
 31
0
  0
LINE
  5
AE1
330
A02
100
AcDbEntity
  8
Shape2DView003
100
AcDbLine
 10
95.6663
 20
-124.439
 30
0
 11
91.9256
 21
-124.858
 31
0
  0
LINE
  5
AE2
330
A02
100
AcDbEntity
  8
Shape2DView003
100
AcDbLine
 10
100.979
 20
-109.481
 30
0
 11
99.9224
 21
-109.599
 31
0
  0
LINE
  5
AE3
330
A02
100
AcDbEntity
  8
Shape2DView003
100
AcDbLine
 10
141.708
 20
-141.278
 30
0
 11
137.967
 21
-141.697
 31
0
  0
LINE
  5
AE4
330
A02
100
AcDbEntity
  8
Shape2DView003
100
AcDbLine
 10
122.229
 20
8.62595
 30
0
 11
121.383
 21
8.53133
 31
0
  0
LINE
  5
AE5
330
A02
100
AcDbEntity
  8
Shape2DView003
100
AcDbLine
 10
12.4378
 20
14.0949
 30
0
 11
11.5927
 21
14.0003
 31
0
  0
LINE
  5
AE6
330
A02
100
AcDbEntity
  8
Shape2DView003
100
AcDbLine
 10
12.4378
 20
94.3395
 30
0
 11
11.5927
 21
94.2449
 31
0
  0
LINE
  5
AE7
330
A02
100
AcDbEntity
  8
Shape2DView003
100
AcDbLine
 10
122.229
 20
-71.6187
 30
0
 11
121.383
 21
-71.7133
 31
0
  0
LINE
  5
AE8
330
A02
100
AcDbEntity
  8
Shape2DView003
100
AcDbLine
 10
-7.04121
 20
67.0362
 30
0
 11
-7.35813
 21
67.0007
 31
0
  0
LINE
  5
AE9
330
A02
100
AcDbEntity
  8
Shape2DView003
100
AcDbLine
 10
141.708
 20
32.1081
 30
0
 11
141.391
 21
32.0726
 31
0
  0
LINE
  5
AEA
330
A02
100
AcDbEntity
  8
Shape2DView003
100
AcDbLine
 10
141.708
 20
-130.292
 30
0
 11
141.391
 21
-130.327
 31
0
  0
LINE
  5
AEB
330
A02
100
AcDbEntity
  8
Shape2DView003
100
AcDbLine
 10
-7.04121
 20
167.342
 30
0
 11
-7.35813
 21
167.307
 31
0
  0
LINE
  5
AEC
330
A02
100
AcDbEntity
  8
Shape2DView003
100
AcDbLine
 10
83.2706
 20
-78.9383
 30
0
 11
82.9537
 21
-78.9738
 31
0
  0
LINE
  5
AED
330
A02
100
AcDbEntity
  8
Shape2DView003
100
AcDbLine
 10
83.2706
 20
71.9981
 30
0
 11
82.9537
 21
71.9626
 31
0
  0
LINE
  5
AEE
330
A02
100
AcDbEntity
  8
Shape2DView003
100
AcDbLine
 10
27.3127
 20
-35.252
 30
0
 11
26.9958
 21
-35.2875
 31
0
  0
LINE
  5
AEF
330
A02
100
AcDbEntity
  8
Shape2DView003
100
AcDbLine
 10
-7.04121
 20
-33.2696
 30
0
 11
-7.35813
 21
-33.3051
 31
0
  0
LINE
  5
AF0
330
A02
100
AcDbEntity
  8
Shape2DView003
100
AcDbLine
 10
14.2086
 20
150.752
 30
0
 11
13.8917
 21
150.717
 31
0
  0
LINE
  5
AF1
330
A02
100
AcDbEntity
  8
Shape2DView003
100
AcDbLine
 10
102.75
 20
-99.8773
 30
0
 11
102.433
 21
-99.9128
 31
0
  0
LINE
  5
AF2
330
A02
100
AcDbEntity
  8
Shape2DView003
100
AcDbLine
 10
102.75
 20
62.5226
 30
0
 11
102.433
 21
62.4871
 31
0
  0
LINE
  5
AF3
330
A02
100
AcDbEntity
  8
Shape2DView003
100
AcDbLine
 10
95.6663
 20
-113.453
 30
0
 11
95.3494
 21
-113.489
 31
0
  0
LINE
  5
AF4
330
A02
100
AcDbEntity
  8
Shape2DView003
100
AcDbLine
 10
95.6663
 20
87.1584
 30
0
 11
95.3494
 21
87.1229
 31
0
  0
LINE
  5
AF5
330
A02
100
AcDbEntity
  8
Shape2DView003
100
AcDbLine
 10
62.0207
 20
-87.1862
 30
0
 11
61.7038
 21
-87.2217
 31
0
  0
LINE
  5
AF6
330
A02
100
AcDbEntity
  8
Shape2DView003
100
AcDbLine
 10
24.8335
 20
-58.1542
 30
0
 11
24.5166
 21
-58.1897
 31
0
  0
LINE
  5
AF7
330
A02
100
AcDbEntity
  8
Shape2DView003
100
AcDbLine
 10
27.3127
 20
100.4
 30
0
 11
26.9958
 21
100.364
 31
0
  0
LINE
  5
AF8
330
A02
100
AcDbEntity
  8
Shape2DView003
100
AcDbLine
 10
87.2712
 20
98.0094
 30
0
 11
91.0119
 21
98.4283
 31
0
  0
LINE
  5
AF9
330
A02
100
AcDbEntity
  8
Shape2DView003
100
AcDbLine
 10
-11.8947
 20
175.428
 30
0
 11
-8.15395
 21
175.847
 31
0
  0
LINE
  5
AFA
330
A02
100
AcDbEntity
  8
Shape2DView003
100
AcDbLine
 10
93.0383
 20
-125.243
 30
0
 11
96.7791
 21
-124.824
 31
0
  0
LINE
  5
AFB
330
A02
100
AcDbEntity
  8
Shape2DView003
100
AcDbLine
 10
139.08
 20
-142.081
 30
0
 11
142.82
 21
-141.663
 31
0
  0
ENDSEC
  0
SECTION
  2
OBJECTS
  0
DICTIONARY
  5
F000
330
0
100
AcDbDictionary
  3
ACAD_GROUP
350
F001
  0
DICTIONARY
  5
F001
330
F000
100
AcDbDictionary
  0
ENDSEC
  0
EOF