<?xml version="1.0"?>
<!DOCTYPE svg PUBLIC "-//W3C//DTD SVG 1.1//EN" "http://www.w3.org/Graphics/SVG/1.1/DTD/svg11.dtd">
<svg width="234.6mm" height="384.6mm" viewBox="0 0 234.6 384.6" xmlns="http://www.w3.org/2000/svg" version="1.1">
<g id="Pad004" transform="translate(117.300000,162.300000) scale(1,-1)">
<path id="Pad004_f0000"  d="M -85.0 160.0 L -85.0 160.0 L 85.0 160.0 L 85.0 160.0 L -85.0 160.0 Z " stroke="#191919" stroke-width="0.35 px" style="stroke-width:0.35;stroke-miterlimit:4;stroke-dasharray:none;fill:#cccccc;fill-opacity:1.0;fill-rule: evenodd "/>
<path id="Pad004_f0001"  d="M 85.0 160.0 A 10 10 0 0 0 95 150L 95.0 150.0 A 10 10 0 0 1 85 160L 85.0 160.0 Z " stroke="#191919" stroke-width="0.35 px" style="stroke-width:0.35;stroke-miterlimit:4;stroke-dasharray:none;fill:#cccccc;fill-opacity:1.0;fill-rule: evenodd "/>
<path id="Pad004_f0002"  d="M 95.0 150.0 L 95.0 150.0 L 95.0 95.0 L 95.0 95.0 L 95.0 150.0 Z " stroke="#191919" stroke-width="0.35 px" style="stroke-width:0.35;stroke-miterlimit:4;stroke-dasharray:none;fill:#cccccc;fill-opacity:1.0;fill-rule: evenodd "/>
<path id="Pad004_f0003"  d="M 95.0 95.0 L 95.0 95.0 A 5 5 0 0 1 100 90L 100.0 90.0 A 5 5 0 0 0 95 95Z " stroke="#191919" stroke-width="0.35 px" style="stroke-width:0.35;stroke-miterlimit:4;stroke-dasharray:none;fill:#cccccc;fill-opacity:1.0;fill-rule: evenodd "/>
<path id="Pad004_f0004"  d="M 100.0 90.0 L 100.0 90.0 L 105.0 90.0 L 105.0 90.0 L 100.0 90.0 Z " stroke="#191919" stroke-width="0.35 px" style="stroke-width:0.35;stroke-miterlimit:4;stroke-dasharray:none;fill:#cccccc;fill-opacity:1.0;fill-rule: evenodd "/>
<path id="Pad004_f0005"  d="M 105.0 90.0 A 10 10 0 0 0 115 80L 115.0 80.0 A 10 10 0 0 1 105 90L 105.0 90.0 Z " stroke="#191919" stroke-width="0.35 px" style="stroke-width:0.35;stroke-miterlimit:4;stroke-dasharray:none;fill:#cccccc;fill-opacity:1.0;fill-rule: evenodd "/>
<path id="Pad004_f0006"  d="M 115.0 80.0 L 115.0 80.0 L 115.0 70.0 L 115.0 70.0 L 115.0 80.0 Z " stroke="#191919" stroke-width="0.35 px" style="stroke-width:0.35;stroke-miterlimit:4;stroke-dasharray:none;fill:#cccccc;fill-opacity:1.0;fill-rule: evenodd "/>
<path id="Pad004_f0007"  d="M 115.0 70.0 A 10 10 0 0 0 105 60L 105.0 60.0 A 10 10 0 0 1 115 70L 115.0 70.0 Z " stroke="#191919" stroke-width="0.35 px" style="stroke-width:0.35;stroke-miterlimit:4;stroke-dasharray:none;fill:#cccccc;fill-opacity:1.0;fill-rule: evenodd "/>
<path id="Pad004_f0008"  d="M 105.0 60.0 L 105.0 60.0 L 85.0 60.0 L 85.0 60.0 L 105.0 60.0 Z " stroke="#191919" stroke-width="0.35 px" style="stroke-width:0.35;stroke-miterlimit:4;stroke-dasharray:none;fill:#cccccc;fill-opacity:1.0;fill-rule: evenodd "/>
<path id="Pad004_f0009"  d="M 85.0 60.0 L 85.0 60.0 L 85.0 -140.0 L 85.0 -140.0 L 85.0 60.0 Z " stroke="#191919" stroke-width="0.35 px" style="stroke-width:0.35;stroke-miterlimit:4;stroke-dasharray:none;fill:#cccccc;fill-opacity:1.0;fill-rule: evenodd "/>
<path id="Pad004_f0010"  d="M 85.0 -140.0 L 85.0 -140.0 L 105.0 -140.0 L 105.0 -140.0 L 85.0 -140.0 Z " stroke="#191919" stroke-width="0.35 px" style="stroke-width:0.35;stroke-miterlimit:4;stroke-dasharray:none;fill:#cccccc;fill-opacity:1.0;fill-rule: evenodd "/>
<path id="Pad004_f0011"  d="M 105.0 -140.0 A 10 10 0 0 0 115 -150L 115.0 -150.0 A 10 10 0 0 1 105 -140L 105.0 -140.0 Z " stroke="#191919" stroke-width="0.35 px" style="stroke-width:0.35;stroke-miterlimit:4;stroke-dasharray:none;fill:#cccccc;fill-opacity:1.0;fill-rule: evenodd "/>
<path id="Pad004_f0012"  d="M 115.0 -150.0 L 115.0 -150.0 L 115.0 -210.000000199 L 115.0 -210.000000199 L 115.0 -150.0 Z " stroke="#191919" stroke-width="0.35 px" style="stroke-width:0.35;stroke-miterlimit:4;stroke-dasharray:none;fill:#cccccc;fill-opacity:1.0;fill-rule: evenodd "/>
<path id="Pad004_f0013"  d="M 115.0 -210.000000199 A 10 10 0 0 0 105 -220L 105.0 -220.0 A 10 10 0 0 1 115 -210L 115.0 -210.000000199 Z " stroke="#191919" stroke-width="0.35 px" style="stroke-width:0.35;stroke-miterlimit:4;stroke-dasharray:none;fill:#cccccc;fill-opacity:1.0;fill-rule: evenodd "/>
<path id="Pad004_f0014"  d="M 105.0 -220.0 L 105.0 -220.0 L -105.0 -220.0 L -105.0 -220.0 L 105.0 -220.0 Z " stroke="#191919" stroke-width="0.35 px" style="stroke-width:0.35;stroke-miterlimit:4;stroke-dasharray:none;fill:#cccccc;fill-opacity:1.0;fill-rule: evenodd "/>
<path id="Pad004_f0015"  d="M -105.0 -220.0 A 10 10 0 0 0 -115 -210L -115.0 -210.0 A 10 10 0 0 1 -105 -220L -105.0 -220.0 Z " stroke="#191919" stroke-width="0.35 px" style="stroke-width:0.35;stroke-miterlimit:4;stroke-dasharray:none;fill:#cccccc;fill-opacity:1.0;fill-rule: evenodd "/>
<path id="Pad004_f0016"  d="M -115.0 -210.0 L -115.0 -210.0 L -115.0 80.0 L -115.0 80.0 L -115.0 -210.0 Z " stroke="#191919" stroke-width="0.35 px" style="stroke-width:0.35;stroke-miterlimit:4;stroke-dasharray:none;fill:#cccccc;fill-opacity:1.0;fill-rule: evenodd "/>
<path id="Pad004_f0017"  d="M -115.0 80.0 A 10 10 0 0 0 -105 90L -105.0 90.0 A 10 10 0 0 1 -115 80L -115.0 80.0 Z " stroke="#191919" stroke-width="0.35 px" style="stroke-width:0.35;stroke-miterlimit:4;stroke-dasharray:none;fill:#cccccc;fill-opacity:1.0;fill-rule: evenodd "/>
<path id="Pad004_f0018"  d="M -105.0 90.0 L -105.0 90.0 L -100.0 90.0 L -100.0 90.0 L -105.0 90.0 Z " stroke="#191919" stroke-width="0.35 px" style="stroke-width:0.35;stroke-miterlimit:4;stroke-dasharray:none;fill:#cccccc;fill-opacity:1.0;fill-rule: evenodd "/>
<path id="Pad004_f0019"  d="M -100.0 90.0 L -100.0 90.0 A 5 5 0 0 1 -95 95L -95.0 95.0 A 5 5 0 0 0 -100 90Z " stroke="#191919" stroke-width="0.35 px" style="stroke-width:0.35;stroke-miterlimit:4;stroke-dasharray:none;fill:#cccccc;fill-opacity:1.0;fill-rule: evenodd "/>
<path id="Pad004_f0020"  d="M -95.0 95.0 L -95.0 95.0 L -95.0 150.0 L -95.0 150.0 L -95.0 95.0 Z " stroke="#191919" stroke-width="0.35 px" style="stroke-width:0.35;stroke-miterlimit:4;stroke-dasharray:none;fill:#cccccc;fill-opacity:1.0;fill-rule: evenodd "/>
<path id="Pad004_f0021"  d="M -95.0 150.0 A 10 10 0 0 0 -85 160L -85.0 160.0 A 10 10 0 0 1 -95 150L -95.0 150.0 Z " stroke="#191919" stroke-width="0.35 px" style="stroke-width:0.35;stroke-miterlimit:4;stroke-dasharray:none;fill:#cccccc;fill-opacity:1.0;fill-rule: evenodd "/>
<path id="Pad004_f0022"  d="M -42.0 -85.56 L -42.0 -85.56 L 42.0 -85.56 L 42.0 -85.56 L -42.0 -85.56 Z " stroke="#191919" stroke-width="0.35 px" style="stroke-width:0.35;stroke-miterlimit:4;stroke-dasharray:none;fill:#cccccc;fill-opacity:1.0;fill-rule: evenodd "/>
<path id="Pad004_f0023"  d="M 42.0 -85.56 L 2.1e-15 -69.18 L 2e-15 -69.18 L 42.0 -85.56 L 42.0 -85.56 Z " stroke="#191919" stroke-width="0.35 px" style="stroke-width:0.35;stroke-miterlimit:4;stroke-dasharray:none;fill:#cccccc;fill-opacity:1.0;fill-rule: evenodd "/>
<path id="Pad004_f0024"  d="M 2e-15 -69.18 L 2e-15 -69.18 L -42.0 -85.56 L -42.0 -85.56 L 2.1e-15 -69.18 Z " stroke="#191919" stroke-width="0.35 px" style="stroke-width:0.35;stroke-miterlimit:4;stroke-dasharray:none;fill:#cccccc;fill-opacity:1.0;fill-rule: evenodd "/>
<path id="Pad004_f0025"  d="M -42.0 -30.56 L -42.0 -30.56 L 42.0 -30.56 L 42.0 -30.56 L -42.0 -30.56 Z " stroke="#191919" stroke-width="0.35 px" style="stroke-width:0.35;stroke-miterlimit:4;stroke-dasharray:none;fill:#cccccc;fill-opacity:1.0;fill-rule: evenodd "/>
<path id="Pad004_f0026"  d="M 42.0 -30.56 L 3.3e-15 -14.18 L 3e-15 -14.18 L 42.0 -30.56 L 42.0 -30.56 Z " stroke="#191919" stroke-width="0.35 px" style="stroke-width:0.35;stroke-miterlimit:4;stroke-dasharray:none;fill:#cccccc;fill-opacity:1.0;fill-rule: evenodd "/>
<path id="Pad004_f0027"  d="M 3e-15 -14.18 L 3e-15 -14.18 L -42.0 -30.56 L -42.0 -30.56 L 3.3e-15 -14.18 Z " stroke="#191919" stroke-width="0.35 px" style="stroke-width:0.35;stroke-miterlimit:4;stroke-dasharray:none;fill:#cccccc;fill-opacity:1.0;fill-rule: evenodd "/>
<path id="Pad004_f0028"  d="M -42.0 11.56 L -42.0 11.56 L 0.0 -4.82 L 0.0 -4.82 L -42.0 11.56 Z " stroke="#191919" stroke-width="0.35 px" style="stroke-width:0.35;stroke-miterlimit:4;stroke-dasharray:none;fill:#cccccc;fill-opacity:1.0;fill-rule: evenodd "/>
<path id="Pad004_f0029"  d="M 0.0 -4.82 L 42.0 11.56 L 42.0 11.56 L 0.0 -4.82 L 0.0 -4.82 Z " stroke="#191919" stroke-width="0.35 px" style="stroke-width:0.35;stroke-miterlimit:4;stroke-dasharray:none;fill:#cccccc;fill-opacity:1.0;fill-rule: evenodd "/>
<path id="Pad004_f0030"  d="M 42.0 11.56 L -42.0 11.56 L -42.0 11.56 L 42.0 11.56 L 42.0 11.56 Z " stroke="#191919" stroke-width="0.35 px" style="stroke-width:0.35;stroke-miterlimit:4;stroke-dasharray:none;fill:#cccccc;fill-opacity:1.0;fill-rule: evenodd "/>
<path id="Pad004_f0031"  d="M -42.0 -43.44 L -42.0 -43.44 L -7e-15 -59.82 L -7.11e-15 -59.82 L -42.0 -43.44 Z " stroke="#191919" stroke-width="0.35 px" style="stroke-width:0.35;stroke-miterlimit:4;stroke-dasharray:none;fill:#cccccc;fill-opacity:1.0;fill-rule: evenodd "/>
<path id="Pad004_f0032"  d="M -7.1054273576e-15 -59.82 L 42.0 -43.44 L 42.0 -43.44 L -7e-15 -59.82 L -7.11e-15 -59.82 Z " stroke="#191919" stroke-width="0.35 px" style="stroke-width:0.35;stroke-miterlimit:4;stroke-dasharray:none;fill:#cccccc;fill-opacity:1.0;fill-rule: evenodd "/>
<path id="Pad004_f0033"  d="M 42.0 -43.44 L -42.0 -43.44 L -42.0 -43.44 L 42.0 -43.44 L 42.0 -43.44 Z " stroke="#191919" stroke-width="0.35 px" style="stroke-width:0.35;stroke-miterlimit:4;stroke-dasharray:none;fill:#cccccc;fill-opacity:1.0;fill-rule: evenodd "/>
<path id="Pad004_f0034"  d="M -62.0 -45.0 L -62.0 -45.0 L -62.0 -84.0 L -62.0 -84.0 L -62.0 -45.0 Z " stroke="#191919" stroke-width="0.35 px" style="stroke-width:0.35;stroke-miterlimit:4;stroke-dasharray:none;fill:#cccccc;fill-opacity:1.0;fill-rule: evenodd "/>
<path id="Pad004_f0035"  d="M -62.0 -84.0 L -12.0 -64.5 L -12.0 -64.5 L -62.0 -84.0 L -62.0 -84.0 Z " stroke="#191919" stroke-width="0.35 px" style="stroke-width:0.35;stroke-miterlimit:4;stroke-dasharray:none;fill:#cccccc;fill-opacity:1.0;fill-rule: evenodd "/>
<path id="Pad004_f0036"  d="M -12.0 -64.5 L -62.0 -45.0 L -62.0 -45.0 L -12.0 -64.5 L -12.0 -64.5 Z " stroke="#191919" stroke-width="0.35 px" style="stroke-width:0.35;stroke-miterlimit:4;stroke-dasharray:none;fill:#cccccc;fill-opacity:1.0;fill-rule: evenodd "/>
<path id="Pad004_f0037"  d="M 62.0 10.0 L 62.0 10.0 L 12.0 -9.5 L 12.0 -9.5 L 62.0 10.0 Z " stroke="#191919" stroke-width="0.35 px" style="stroke-width:0.35;stroke-miterlimit:4;stroke-dasharray:none;fill:#cccccc;fill-opacity:1.0;fill-rule: evenodd "/>
<path id="Pad004_f0038"  d="M 12.0 -9.5 L 12.0 -9.5 L 62.0 -29.0 L 62.0 -29.0 L 12.0 -9.5 Z " stroke="#191919" stroke-width="0.35 px" style="stroke-width:0.35;stroke-miterlimit:4;stroke-dasharray:none;fill:#cccccc;fill-opacity:1.0;fill-rule: evenodd "/>
<path id="Pad004_f0039"  d="M 62.0 -29.0 L 62.0 10.0 L 62.0 10.0 L 62.0 -29.0 L 62.0 -29.0 Z " stroke="#191919" stroke-width="0.35 px" style="stroke-width:0.35;stroke-miterlimit:4;stroke-dasharray:none;fill:#cccccc;fill-opacity:1.0;fill-rule: evenodd "/>
<path id="Pad004_f0040"  d="M -62.0 10.0 L -62.0 10.0 L -62.0 -29.0 L -62.0 -29.0 L -62.0 10.0 Z " stroke="#191919" stroke-width="0.35 px" style="stroke-width:0.35;stroke-miterlimit:4;stroke-dasharray:none;fill:#cccccc;fill-opacity:1.0;fill-rule: evenodd "/>
<path id="Pad004_f0041"  d="M -62.0 -29.0 L -12.0 -9.5 L -12.0 -9.5 L -62.0 -29.0 L -62.0 -29.0 Z " stroke="#191919" stroke-width="0.35 px" style="stroke-width:0.35;stroke-miterlimit:4;stroke-dasharray:none;fill:#cccccc;fill-opacity:1.0;fill-rule: evenodd "/>
<path id="Pad004_f0042"  d="M -12.0 -9.5 L -62.0 10.0 L -62.0 10.0 L -12.0 -9.5 L -12.0 -9.5 Z " stroke="#191919" stroke-width="0.35 px" style="stroke-width:0.35;stroke-miterlimit:4;stroke-dasharray:none;fill:#cccccc;fill-opacity:1.0;fill-rule: evenodd "/>
<path id="Pad004_f0043"  d="M 62.0 -45.0 L 62.0 -45.0 L 12.0 -64.5 L 12.0 -64.5 L 62.0 -45.0 Z " stroke="#191919" stroke-width="0.35 px" style="stroke-width:0.35;stroke-miterlimit:4;stroke-dasharray:none;fill:#cccccc;fill-opacity:1.0;fill-rule: evenodd "/>
<path id="Pad004_f0044"  d="M 12.0 -64.5 L 12.0 -64.5 L 62.0 -84.0 L 62.0 -84.0 L 12.0 -64.5 Z " stroke="#191919" stroke-width="0.35 px" style="stroke-width:0.35;stroke-miterlimit:4;stroke-dasharray:none;fill:#cccccc;fill-opacity:1.0;fill-rule: evenodd "/>
<path id="Pad004_f0045"  d="M 62.0 -84.0 L 62.0 -45.0 L 62.0 -45.0 L 62.0 -84.0 L 62.0 -84.0 Z " stroke="#191919" stroke-width="0.35 px" style="stroke-width:0.35;stroke-miterlimit:4;stroke-dasharray:none;fill:#cccccc;fill-opacity:1.0;fill-rule: evenodd "/>
<path id="Pad004_f0046"  d="M -39.0 -178.0 L -39.0 -194.0 L -39.0 -194.0 L -39.0 -178.0 L -39.0 -178.0 Z " stroke="#191919" stroke-width="0.35 px" style="stroke-width:0.35;stroke-miterlimit:4;stroke-dasharray:none;fill:#cccccc;fill-opacity:1.0;fill-rule: evenodd "/>
<path id="Pad004_f0047"  d="M -39.0 -194.0 L -16.0 -194.0 L -16.0 -194.0 L -39.0 -194.0 L -39.0 -194.0 Z " stroke="#191919" stroke-width="0.35 px" style="stroke-width:0.35;stroke-miterlimit:4;stroke-dasharray:none;fill:#cccccc;fill-opacity:1.0;fill-rule: evenodd "/>
<path id="Pad004_f0048"  d="M -16.0 -194.0 L -16.0 -178.0 L -16.0 -178.0 L -16.0 -194.0 L -16.0 -194.0 Z " stroke="#191919" stroke-width="0.35 px" style="stroke-width:0.35;stroke-miterlimit:4;stroke-dasharray:none;fill:#cccccc;fill-opacity:1.0;fill-rule: evenodd "/>
<path id="Pad004_f0049"  d="M -16.0 -178.0 L -39.0 -178.0 L -39.0 -178.0 L -16.0 -178.0 L -16.0 -178.0 Z " stroke="#191919" stroke-width="0.35 px" style="stroke-width:0.35;stroke-miterlimit:4;stroke-dasharray:none;fill:#cccccc;fill-opacity:1.0;fill-rule: evenodd "/>
<path id="Pad004_f0050"  d="M 39.0 -178.0 L 16.0 -178.0 L 16.0 -178.0 L 39.0 -178.0 L 39.0 -178.0 Z " stroke="#191919" stroke-width="0.35 px" style="stroke-width:0.35;stroke-miterlimit:4;stroke-dasharray:none;fill:#cccccc;fill-opacity:1.0;fill-rule: evenodd "/>
<path id="Pad004_f0051"  d="M 16.0 -178.0 L 16.0 -194.0 L 16.0 -194.0 L 16.0 -178.0 L 16.0 -178.0 Z " stroke="#191919" stroke-width="0.35 px" style="stroke-width:0.35;stroke-miterlimit:4;stroke-dasharray:none;fill:#cccccc;fill-opacity:1.0;fill-rule: evenodd "/>
<path id="Pad004_f0052"  d="M 16.0 -194.0 L 39.0 -194.0 L 39.0 -194.0 L 16.0 -194.0 L 16.0 -194.0 Z " stroke="#191919" stroke-width="0.35 px" style="stroke-width:0.35;stroke-miterlimit:4;stroke-dasharray:none;fill:#cccccc;fill-opacity:1.0;fill-rule: evenodd "/>
<path id="Pad004_f0053"  d="M 39.0 -194.0 L 39.0 -178.0 L 39.0 -178.0 L 39.0 -194.0 L 39.0 -194.0 Z " stroke="#191919" stroke-width="0.35 px" style="stroke-width:0.35;stroke-miterlimit:4;stroke-dasharray:none;fill:#cccccc;fill-opacity:1.0;fill-rule: evenodd "/>
<path id="Pad004_f0054"  d="M 94.0 -178.0 L 71.0 -178.0 L 71.0 -178.0 L 94.0 -178.0 L 94.0 -178.0 Z " stroke="#191919" stroke-width="0.35 px" style="stroke-width:0.35;stroke-miterlimit:4;stroke-dasharray:none;fill:#cccccc;fill-opacity:1.0;fill-rule: evenodd "/>
<path id="Pad004_f0055"  d="M 71.0 -178.0 L 71.0 -194.0 L 71.0 -194.0 L 71.0 -178.0 L 71.0 -178.0 Z " stroke="#191919" stroke-width="0.35 px" style="stroke-width:0.35;stroke-miterlimit:4;stroke-dasharray:none;fill:#cccccc;fill-opacity:1.0;fill-rule: evenodd "/>
<path id="Pad004_f0056"  d="M 71.0 -194.0 L 94.0 -194.0 L 94.0 -194.0 L 71.0 -194.0 L 71.0 -194.0 Z " stroke="#191919" stroke-width="0.35 px" style="stroke-width:0.35;stroke-miterlimit:4;stroke-dasharray:none;fill:#cccccc;fill-opacity:1.0;fill-rule: evenodd "/>
<path id="Pad004_f0057"  d="M 94.0 -194.0 L 94.0 -178.0 L 94.0 -178.0 L 94.0 -194.0 L 94.0 -194.0 Z " stroke="#191919" stroke-width="0.35 px" style="stroke-width:0.35;stroke-miterlimit:4;stroke-dasharray:none;fill:#cccccc;fill-opacity:1.0;fill-rule: evenodd "/>
<path id="Pad004_f0058"  d="M -71.0 -194.0 L -71.0 -178.0 L -71.0 -178.0 L -71.0 -194.0 L -71.0 -194.0 Z " stroke="#191919" stroke-width="0.35 px" style="stroke-width:0.35;stroke-miterlimit:4;stroke-dasharray:none;fill:#cccccc;fill-opacity:1.0;fill-rule: evenodd "/>
<path id="Pad004_f0059"  d="M -71.0 -178.0 L -94.0 -178.0 L -94.0 -178.0 L -71.0 -178.0 L -71.0 -178.0 Z " stroke="#191919" stroke-width="0.35 px" style="stroke-width:0.35;stroke-miterlimit:4;stroke-dasharray:none;fill:#cccccc;fill-opacity:1.0;fill-rule: evenodd "/>
<path id="Pad004_f0060"  d="M -94.0 -178.0 L -94.0 -194.0 L -94.0 -194.0 L -94.0 -178.0 L -94.0 -178.0 Z " stroke="#191919" stroke-width="0.35 px" style="stroke-width:0.35;stroke-miterlimit:4;stroke-dasharray:none;fill:#cccccc;fill-opacity:1.0;fill-rule: evenodd "/>
<path id="Pad004_f0061"  d="M -94.0 -194.0 L -71.0 -194.0 L -71.0 -194.0 L -94.0 -194.0 L -94.0 -194.0 Z " stroke="#191919" stroke-width="0.35 px" style="stroke-width:0.35;stroke-miterlimit:4;stroke-dasharray:none;fill:#cccccc;fill-opacity:1.0;fill-rule: evenodd "/>
<path id="Pad004_f0062"  d="M 39.0 48.0 L 16.0 48.0 L 16.0 48.0 L 39.0 48.0 L 39.0 48.0 Z " stroke="#191919" stroke-width="0.35 px" style="stroke-width:0.35;stroke-miterlimit:4;stroke-dasharray:none;fill:#cccccc;fill-opacity:1.0;fill-rule: evenodd "/>
<path id="Pad004_f0063"  d="M 16.0 48.0 L 16.0 32.0 L 16.0 32.0 L 16.0 48.0 L 16.0 48.0 Z " stroke="#191919" stroke-width="0.35 px" style="stroke-width:0.35;stroke-miterlimit:4;stroke-dasharray:none;fill:#cccccc;fill-opacity:1.0;fill-rule: evenodd "/>
<path id="Pad004_f0064"  d="M 16.0 32.0 L 39.0 32.0 L 39.0 32.0 L 16.0 32.0 L 16.0 32.0 Z " stroke="#191919" stroke-width="0.35 px" style="stroke-width:0.35;stroke-miterlimit:4;stroke-dasharray:none;fill:#cccccc;fill-opacity:1.0;fill-rule: evenodd "/>
<path id="Pad004_f0065"  d="M 39.0 32.0 L 39.0 48.0 L 39.0 48.0 L 39.0 32.0 L 39.0 32.0 Z " stroke="#191919" stroke-width="0.35 px" style="stroke-width:0.35;stroke-miterlimit:4;stroke-dasharray:none;fill:#cccccc;fill-opacity:1.0;fill-rule: evenodd "/>
<path id="Pad004_f0066"  d="M -39.0 48.0 L -39.0 32.0 L -39.0 32.0 L -39.0 48.0 L -39.0 48.0 Z " stroke="#191919" stroke-width="0.35 px" style="stroke-width:0.35;stroke-miterlimit:4;stroke-dasharray:none;fill:#cccccc;fill-opacity:1.0;fill-rule: evenodd "/>
<path id="Pad004_f0067"  d="M -39.0 32.0 L -16.0 32.0 L -16.0 32.0 L -39.0 32.0 L -39.0 32.0 Z " stroke="#191919" stroke-width="0.35 px" style="stroke-width:0.35;stroke-miterlimit:4;stroke-dasharray:none;fill:#cccccc;fill-opacity:1.0;fill-rule: evenodd "/>
<path id="Pad004_f0068"  d="M -16.0 32.0 L -16.0 48.0 L -16.0 48.0 L -16.0 32.0 L -16.0 32.0 Z " stroke="#191919" stroke-width="0.35 px" style="stroke-width:0.35;stroke-miterlimit:4;stroke-dasharray:none;fill:#cccccc;fill-opacity:1.0;fill-rule: evenodd "/>
<path id="Pad004_f0069"  d="M -16.0 48.0 L -39.0 48.0 L -39.0 48.0 L -16.0 48.0 L -16.0 48.0 Z " stroke="#191919" stroke-width="0.35 px" style="stroke-width:0.35;stroke-miterlimit:4;stroke-dasharray:none;fill:#cccccc;fill-opacity:1.0;fill-rule: evenodd "/>
<circle cx="42.0" cy="-155.0" r="4.0" stroke="#191919" stroke-width="0.35 px" style="stroke-width:0.35;stroke-miterlimit:4;stroke-dasharray:none;fill:#cccccc"/>
<circle cx="-42.0" cy="-155.0" r="4.0" stroke="#191919" stroke-width="0.35 px" style="stroke-width:0.35;stroke-miterlimit:4;stroke-dasharray:none;fill:#cccccc"/>
<circle cx="20.0" cy="140.0" r="1.5" stroke="#191919" stroke-width="0.35 px" style="stroke-width:0.35;stroke-miterlimit:4;stroke-dasharray:none;fill:#cccccc"/>
<circle cx="-20.0" cy="140.0" r="1.5" stroke="#191919" stroke-width="0.35 px" style="stroke-width:0.35;stroke-miterlimit:4;stroke-dasharray:none;fill:#cccccc"/>
<circle cx="-79.0" cy="45.0" r="1.5" stroke="#191919" stroke-width="0.35 px" style="stroke-width:0.35;stroke-miterlimit:4;stroke-dasharray:none;fill:#cccccc"/>
<circle cx="79.0" cy="45.0" r="1.5" stroke="#191919" stroke-width="0.35 px" style="stroke-width:0.35;stroke-miterlimit:4;stroke-dasharray:none;fill:#cccccc"/>
<circle cx="-79.0" cy="-113.0" r="1.5" stroke="#191919" stroke-width="0.35 px" style="stroke-width:0.35;stroke-miterlimit:4;stroke-dasharray:none;fill:#cccccc"/>
<circle cx="63.0" cy="-113.0" r="1.5" stroke="#191919" stroke-width="0.35 px" style="stroke-width:0.35;stroke-miterlimit:4;stroke-dasharray:none;fill:#cccccc"/>
<circle cx="-85.0" cy="40.0" r="1.5" stroke="#191919" stroke-width="0.35 px" style="stroke-width:0.35;stroke-miterlimit:4;stroke-dasharray:none;fill:#cccccc"/>
<circle cx="85.0" cy="100.0" r="1.5" stroke="#191919" stroke-width="0.35 px" style="stroke-width:0.35;stroke-miterlimit:4;stroke-dasharray:none;fill:#cccccc"/>
<circle cx="105.0" cy="80.0" r="1.5" stroke="#191919" stroke-width="0.35 px" style="stroke-width:0.35;stroke-miterlimit:4;stroke-dasharray:none;fill:#cccccc"/>
<circle cx="-105.0" cy="-15.0" r="1.5" stroke="#191919" stroke-width="0.35 px" style="stroke-width:0.35;stroke-miterlimit:4;stroke-dasharray:none;fill:#cccccc"/>
<circle cx="-105.0" cy="-120.0" r="1.5" stroke="#191919" stroke-width="0.35 px" style="stroke-width:0.35;stroke-miterlimit:4;stroke-dasharray:none;fill:#cccccc"/>
<circle cx="105.0" cy="-150.0" r="1.5" stroke="#191919" stroke-width="0.35 px" style="stroke-width:0.35;stroke-miterlimit:4;stroke-dasharray:none;fill:#cccccc"/>
<circle cx="-105.0" cy="-210.0" r="1.5" stroke="#191919" stroke-width="0.35 px" style="stroke-width:0.35;stroke-miterlimit:4;stroke-dasharray:none;fill:#cccccc"/>
<circle cx="105.0" cy="-210.0" r="1.5" stroke="#191919" stroke-width="0.35 px" style="stroke-width:0.35;stroke-miterlimit:4;stroke-dasharray:none;fill:#cccccc"/>
<circle cx="0.0" cy="-210.0" r="1.5" stroke="#191919" stroke-width="0.35 px" style="stroke-width:0.35;stroke-miterlimit:4;stroke-dasharray:none;fill:#cccccc"/>
<circle cx="28.0" cy="70.0" r="1.5" stroke="#191919" stroke-width="0.35 px" style="stroke-width:0.35;stroke-miterlimit:4;stroke-dasharray:none;fill:#cccccc"/>
<circle cx="-28.0" cy="70.0" r="1.5" stroke="#191919" stroke-width="0.35 px" style="stroke-width:0.35;stroke-miterlimit:4;stroke-dasharray:none;fill:#cccccc"/>
<circle cx="-105.0" cy="80.0" r="1.5" stroke="#191919" stroke-width="0.35 px" style="stroke-width:0.35;stroke-miterlimit:4;stroke-dasharray:none;fill:#cccccc"/>
<circle cx="42.0" cy="-155.0" r="4.0" stroke="#191919" stroke-width="0.35 px" style="stroke-width:0.35;stroke-miterlimit:4;stroke-dasharray:none;fill:#cccccc"/>
<circle cx="42.0" cy="-155.0" r="4.0" stroke="#191919" stroke-width="0.35 px" style="stroke-width:0.35;stroke-miterlimit:4;stroke-dasharray:none;fill:#cccccc"/>
<title>Pad004</title>
</g>
</svg>